<?xml version="1.0" encoding="utf-8"?>
<svg height="1080" preserveAspectRatio="none" vdfName="建筑总耗能" vdfPath="D:/ics8000/cbin/xview/pages/能效系统/建筑总耗能.vdf" viewBox="0 0 1920 1080" width="1920" xmlns="http://www.w3.org/2000/svg" xmlns:vn="http://www.xjgc.com/xview/vision" xmlns:xlink="http://www.w3.org/1999/xlink" >
<defs id="doc_defs" >
<pattern height="1080" id="root_bg" patternUnits="userSpaceOnUse" width="1920" >
<rect fill="#000000" height="100%" width="100%" />
<image height="1080" width="1920" xlink:href="../image/gjsws/bg.jpg" />
</pattern>
<pattern id="lineargradient#ffff00" patternUnits="userSpaceOnUse" x="0" y="0" >
<linearGradient gradientUnits="objectBoundingBox" id="lineargradient#ffff00#RToL" x1="0%" x2="100%" y1="50%" y2="50%" >
<stop offset="0" stop-color="#aaaa00" />
<stop offset="1" stop-color="#ffff7f" />
</linearGradient>
</pattern>
<pattern id="lineargradient#af0000" patternUnits="userSpaceOnUse" x="0" y="0" >
<linearGradient gradientUnits="objectBoundingBox" id="lineargradient#af0000#RToL" x1="0%" x2="100%" y1="50%" y2="50%" >
<stop offset="0" stop-color="#750000" />
<stop offset="1" stop-color="#ff0707" />
</linearGradient>
</pattern>
<pattern id="lineargradient#55ff00" patternUnits="userSpaceOnUse" x="0" y="0" >
<linearGradient gradientUnits="objectBoundingBox" id="lineargradient#55ff00#RToL" x1="0%" x2="100%" y1="50%" y2="50%" >
<stop offset="0" stop-color="#38aa00" />
<stop offset="1" stop-color="#aaff7f" />
</linearGradient>
</pattern>
<pattern id="lineargradient#ff55ff" patternUnits="userSpaceOnUse" x="0" y="0" >
<linearGradient gradientUnits="objectBoundingBox" id="lineargradient#ff55ff#RToL" x1="0%" x2="100%" y1="50%" y2="50%" >
<stop offset="0" stop-color="#aa38aa" />
<stop offset="1" stop-color="#ffd5ff" />
</linearGradient>
</pattern>
<pattern id="lineargradient#0000ff" patternUnits="userSpaceOnUse" x="0" y="0" >
<linearGradient gradientUnits="objectBoundingBox" id="lineargradient#0000ff#RToL" x1="0%" x2="100%" y1="50%" y2="50%" >
<stop offset="0" stop-color="#0000aa" />
<stop offset="1" stop-color="#7f7fff" />
</linearGradient>
</pattern>
<pattern id="lineargradient#00aaff" patternUnits="userSpaceOnUse" x="0" y="0" >
<linearGradient gradientUnits="objectBoundingBox" id="lineargradient#00aaff#RToL" x1="0%" x2="100%" y1="50%" y2="50%" >
<stop offset="0" stop-color="#0071aa" />
<stop offset="1" stop-color="#7fd5ff" />
</linearGradient>
</pattern>
</defs>
<rect fill="url(#root_bg)" height="100%" id="svg_root_bkgrdrect" width="100%" x="0" y="0" />
<rect fill="none" height="88" id="Rect85" stroke="#000000" stroke-dasharray="15,3" stroke-width="1" width="1466" x="372" y="494" />
<rect fill="none" height="375" id="Rect84" stroke="#000000" stroke-dasharray="15,3" stroke-width="1" width="647" x="1195" y="602" />
<rect fill="none" height="374" id="Rect83" stroke="#000000" stroke-dasharray="15,3" stroke-width="1" width="809" x="372" y="600" />
<rect fill="#c8c8c8" height="276" id="Rect57" stroke="#ffffff" stroke-width="1" width="782" x="387" y="670" />
<g height="29" id="Text5" width="10" x="1072" y="339" />
<line id="Line13" stroke="#000000" stroke-width="1" x1="447" x2="1153" y1="711" y2="710" />
<g height="26" id="Text37" width="28" x="400" y="853" >
<text fill="#000000" font-family="SimSun" font-size="15" font-weight="bold" x="400"  y="865" >20</text>
</g>
<g height="26" id="Text38" width="28" x="400" y="826" >
<text fill="#000000" font-family="SimSun" font-size="15" font-weight="bold" x="400"  y="838" >40</text>
</g>
<g height="26" id="Text39" width="28" x="400" y="800" >
<text fill="#000000" font-family="SimSun" font-size="15" font-weight="bold" x="400"  y="812" >60</text>
</g>
<g height="26" id="Text40" width="28" x="400" y="775" >
<text fill="#000000" font-family="SimSun" font-size="15" font-weight="bold" x="400"  y="787" >80</text>
</g>
<g height="26" id="Text41" width="37" x="400" y="749" >
<text fill="#000000" font-family="SimSun" font-size="15" font-weight="bold" x="400"  y="761" >100</text>
</g>
<g height="26" id="Text42" width="37" x="400" y="723" >
<text fill="#000000" font-family="SimSun" font-size="15" font-weight="bold" x="400"  y="735" >140</text>
</g>
<g height="26" id="Text43" width="37" x="400" y="697" >
<text fill="#000000" font-family="SimSun" font-size="15" font-weight="bold" x="400"  y="709" >160</text>
</g>
<image height="2" id="Image3" width="320" x="21" xlink:href="../image/gjsws/分隔线.jpg" y="343" />
<image height="2" id="Image4" width="320" x="19" xlink:href="../image/gjsws/分隔线.jpg" y="547" />
<image height="2" id="Image5" width="320" x="21" xlink:href="../image/gjsws/分隔线.jpg" y="761" />
<a id="Group9_link_elem" onclick="if (window.openPage) {openPage(evt,'能效系统/用电耗能_分区用电.svg','_self', '');}" target="_self" xlink:href="能效系统/用电耗能_分区用电.svg" >
<g height="89" id="Group9" width="321" x="20" y="357" >
<image height="89" id="Group9_Image12" width="321" x="20" xlink:href="../image/gjsws/鼠标移入.jpg" y="357" />
<g height="37" id="Group9_Text94" width="123" x="154" y="389" >
<text fill="#ffffff" font-family="SimSun" font-size="23" font-weight="bold" x="159"  y="414" >用电耗能</text>
</g>
<image height="66" id="Group9_Image27" width="66" x="50" xlink:href="../image/gjsws/zjxt.png" y="365" />
</g>
</a>
<a id="Group10_link_elem" onclick="if (window.openPage) {openPage(evt,'能效系统/用水耗能_分区用水.svg','_self', '');}" target="_self" xlink:href="能效系统/用水耗能_分区用水.svg" >
<g height="89" id="Group10" width="321" x="20" y="461" >
<image height="89" id="Group10_Image13" width="321" x="20" xlink:href="../image/gjsws/鼠标移入.jpg" y="461" />
<g height="37" id="Group10_Text95" width="123" x="158" y="494" >
<text fill="#ffffff" font-family="SimSun" font-size="23" font-weight="bold" x="163"  y="519" >用水耗能</text>
</g>
<image height="66" id="Group10_Image25" width="66" x="50" xlink:href="../image/gjsws/cydj.png" y="475" />
</g>
</a>
<a id="Group11_link_elem" onclick="if (window.openPage) {openPage(evt,'能效系统/燃气耗能_燃气系统.svg','_self', '');}" target="_self" xlink:href="能效系统/燃气耗能_燃气系统.svg" >
<g height="89" id="Group11" width="321" x="20" y="565" >
<image height="89" id="Group11_Image14" width="321" x="20" xlink:href="../image/gjsws/鼠标移入.jpg" y="565" />
<g height="37" id="Group11_Text96" width="123" x="152" y="592" >
<text fill="#ffffff" font-family="SimSun" font-size="23" font-weight="bold" x="157"  y="617" >燃气耗能</text>
</g>
<image height="66" id="Group11_Image24" width="66" x="50" xlink:href="../image/gjsws/cnsb.png" y="576" />
</g>
</a>
<a id="Group12_link_elem" onclick="if (window.openPage) {openPage(evt,'能效系统/供热耗能_供热系统.svg','_self', '');}" target="_self" xlink:href="能效系统/供热耗能_供热系统.svg" >
<g height="89" id="Group12" width="321" x="20" y="669" >
<image height="89" id="Group12_Image15" width="321" x="20" xlink:href="../image/gjsws/鼠标移入.jpg" y="669" />
<g height="37" id="Group12_Text97" width="123" x="150" y="700" >
<text fill="#ffffff" font-family="SimSun" font-size="23" font-weight="bold" x="155"  y="725" >供热耗能</text>
</g>
<image height="66" id="Group12_Image29" width="66" x="50" xlink:href="../image/gjsws/sgcx.png" y="682" />
</g>
</a>
<a id="Group13_link_elem" onclick="if (window.openPage) {openPage(evt,'能效系统/供冷耗能_冷水系统.svg','_self', '');}" target="_self" xlink:href="能效系统/供冷耗能_冷水系统.svg" >
<g height="89" id="Group13" width="321" x="20" y="773" >
<image height="89" id="Group13_Image16" width="321" x="20" xlink:href="../image/gjsws/鼠标移入.jpg" y="773" />
<g height="37" id="Group13_Text98" width="123" x="150" y="799" >
<text fill="#ffffff" font-family="SimSun" font-size="23" font-weight="bold" x="155"  y="824" >供冷耗能</text>
</g>
<image height="66" id="Group13_Image23" width="66" x="50" xlink:href="../image/gjsws/yxzb.png" y="779" />
</g>
</a>
<a id="Group14_link_elem" onclick="if (window.openPage) {openPage(evt,'能效系统/其他能源消耗_锅炉系统.svg','_self', '');}" target="_self" xlink:href="能效系统/其他能源消耗_锅炉系统.svg" >
<g height="89" id="Group14" width="321" x="20" y="878" >
<image height="89" id="Group14_Image17" width="321" x="20" xlink:href="../image/gjsws/鼠标移入.jpg" y="878" />
<g height="37" id="Group14_Text99" width="179" x="130" y="909" >
<text fill="#ffffff" font-family="SimSun" font-size="23" font-weight="bold" x="135"  y="934" >其他能源耗能</text>
</g>
<image height="66" id="Group14_Image22" width="66" x="50" xlink:href="../image/gjsws/yxxx.png" y="890" />
</g>
</a>
<g height="89" id="Group15" width="321" x="20" y="253" >
<image height="89" id="Group15_Image1" width="321" x="20" xlink:href="../image/gjsws/鼠标移入.jpg" y="253" />
<g height="37" id="Group15_Text93" width="151" x="144" y="282" >
<text fill="#ffffff" font-family="SimSun" font-size="23" font-weight="bold" x="149"  y="307" >建筑总耗能</text>
</g>
<image height="66" id="Group15_Image11" width="66" x="50" xlink:href="../image/gjsws/sgcl.png" y="259" />
</g>
<g height="29" id="Text135" width="10" x="1072" y="339" />
<line id="Line2" stroke="#000000" stroke-width="1" x1="447" x2="447" y1="677" y2="889" />
<g height="275" id="Group20" width="637" x="1151" y="192" >
<rect fill="#c8c8c8" height="275" id="Group20_Rect68" stroke="#ffffff" stroke-width="1" width="637" x="1151" y="192" />
<g height="245" id="Group20_Group19" width="612" x="1164" y="204" >
<ellipse cx="1180" cy="380" fill="#000000" id="Group20_Group19_Ellipse1" rx="3" ry="3" stroke="#000000" stroke-width="1" />
<ellipse cx="1204" cy="388" fill="#000000" id="Group20_Group19_Ellipse25" rx="3" ry="3" stroke="#000000" stroke-width="1" />
<ellipse cx="1229" cy="386" fill="#000000" id="Group20_Group19_Ellipse26" rx="3" ry="3" stroke="#000000" stroke-width="1" />
<ellipse cx="1254" cy="387" fill="#000000" id="Group20_Group19_Ellipse27" rx="3" ry="3" stroke="#000000" stroke-width="1" />
<ellipse cx="1279" cy="387" fill="#000000" id="Group20_Group19_Ellipse28" rx="3" ry="3" stroke="#000000" stroke-width="1" />
<ellipse cx="1304" cy="387" fill="#000000" id="Group20_Group19_Ellipse29" rx="3" ry="3" stroke="#000000" stroke-width="1" />
<ellipse cx="1328" cy="380" fill="#000000" id="Group20_Group19_Ellipse30" rx="3" ry="3" stroke="#000000" stroke-width="1" />
<ellipse cx="1353" cy="363" fill="#000000" id="Group20_Group19_Ellipse31" rx="3" ry="3" stroke="#000000" stroke-width="1" />
<ellipse cx="1378" cy="332" fill="#000000" id="Group20_Group19_Ellipse32" rx="3" ry="3" stroke="#000000" stroke-width="1" />
<ellipse cx="1403" cy="276" fill="#000000" id="Group20_Group19_Ellipse33" rx="3" ry="3" stroke="#000000" stroke-width="1" />
<ellipse cx="1428" cy="266" fill="#000000" id="Group20_Group19_Ellipse34" rx="3" ry="3" stroke="#000000" stroke-width="1" />
<ellipse cx="1453" cy="261" fill="#000000" id="Group20_Group19_Ellipse35" rx="3" ry="3" stroke="#000000" stroke-width="1" />
<ellipse cx="1477" cy="257" fill="#000000" id="Group20_Group19_Ellipse36" rx="3" ry="3" stroke="#000000" stroke-width="1" />
<ellipse cx="1502" cy="275" fill="#000000" id="Group20_Group19_Ellipse37" rx="3" ry="3" stroke="#000000" stroke-width="1" />
<ellipse cx="1527" cy="268" fill="#000000" id="Group20_Group19_Ellipse38" rx="3" ry="3" stroke="#000000" stroke-width="1" />
<ellipse cx="1552" cy="264" fill="#000000" id="Group20_Group19_Ellipse39" rx="3" ry="3" stroke="#000000" stroke-width="1" />
<ellipse cx="1577" cy="249" fill="#000000" id="Group20_Group19_Ellipse40" rx="3" ry="3" stroke="#000000" stroke-width="1" />
<ellipse cx="1602" cy="256" fill="#000000" id="Group20_Group19_Ellipse41" rx="3" ry="3" stroke="#000000" stroke-width="1" />
<ellipse cx="1626" cy="268" fill="#000000" id="Group20_Group19_Ellipse42" rx="3" ry="3" stroke="#000000" stroke-width="1" />
<ellipse cx="1651" cy="333" fill="#000000" id="Group20_Group19_Ellipse43" rx="3" ry="3" stroke="#000000" stroke-width="1" />
<ellipse cx="1676" cy="339" fill="#000000" id="Group20_Group19_Ellipse44" rx="3" ry="3" stroke="#000000" stroke-width="1" />
<ellipse cx="1701" cy="363" fill="#000000" id="Group20_Group19_Ellipse45" rx="3" ry="3" stroke="#000000" stroke-width="1" />
<ellipse cx="1752" cy="383" fill="#000000" id="Group20_Group19_Ellipse46" rx="3" ry="3" stroke="#000000" stroke-width="1" />
<ellipse cx="1726" cy="379" fill="#000000" id="Group20_Group19_Ellipse47" rx="3" ry="3" stroke="#000000" stroke-width="1" />
<line id="Group20_Group19_Line43" stroke="#000000" stroke-width="1" x1="1167" x2="1167" y1="204" y2="416" />
<line id="Group20_Group19_Line44" stroke="#000000" stroke-width="1" x1="1166" x2="1772" y1="370" y2="369" />
<line id="Group20_Group19_Line45" stroke="#000000" stroke-width="1" x1="1166" x2="1772" y1="322" y2="321" />
<line id="Group20_Group19_Line46" stroke="#000000" stroke-width="1" x1="1166" x2="1772" y1="276" y2="275" />
<line id="Group20_Group19_Line47" stroke="#000000" stroke-width="1" x1="1166" x2="1772" y1="229" y2="228" />
<g height="49" id="Group20_Group19_Group18" width="612" x="1164" y="400" >
<line id="Group20_Group19_Group18_Line18" stroke="#000000" stroke-width="1" x1="1193" x2="1193" y1="400" y2="414" />
<line id="Group20_Group19_Group18_Line19" stroke="#000000" stroke-width="1" x1="1218" x2="1218" y1="400" y2="414" />
<line id="Group20_Group19_Group18_Line20" stroke="#000000" stroke-width="1" x1="1243" x2="1243" y1="400" y2="414" />
<line id="Group20_Group19_Group18_Line21" stroke="#000000" stroke-width="1" x1="1268" x2="1268" y1="400" y2="414" />
<line id="Group20_Group19_Group18_Line22" stroke="#000000" stroke-width="1" x1="1293" x2="1293" y1="400" y2="414" />
<line id="Group20_Group19_Group18_Line23" stroke="#000000" stroke-width="1" x1="1318" x2="1318" y1="400" y2="414" />
<line id="Group20_Group19_Group18_Line24" stroke="#000000" stroke-width="1" x1="1343" x2="1343" y1="400" y2="414" />
<line id="Group20_Group19_Group18_Line25" stroke="#000000" stroke-width="1" x1="1368" x2="1368" y1="400" y2="414" />
<line id="Group20_Group19_Group18_Line26" stroke="#000000" stroke-width="1" x1="1393" x2="1393" y1="400" y2="414" />
<line id="Group20_Group19_Group18_Line27" stroke="#000000" stroke-width="1" x1="1418" x2="1418" y1="400" y2="414" />
<line id="Group20_Group19_Group18_Line28" stroke="#000000" stroke-width="1" x1="1443" x2="1443" y1="400" y2="414" />
<line id="Group20_Group19_Group18_Line29" stroke="#000000" stroke-width="1" x1="1468" x2="1468" y1="400" y2="414" />
<line id="Group20_Group19_Group18_Line30" stroke="#000000" stroke-width="1" x1="1493" x2="1493" y1="400" y2="414" />
<line id="Group20_Group19_Group18_Line31" stroke="#000000" stroke-width="1" x1="1518" x2="1518" y1="400" y2="414" />
<line id="Group20_Group19_Group18_Line32" stroke="#000000" stroke-width="1" x1="1543" x2="1543" y1="400" y2="414" />
<line id="Group20_Group19_Group18_Line33" stroke="#000000" stroke-width="1" x1="1568" x2="1568" y1="400" y2="414" />
<line id="Group20_Group19_Group18_Line34" stroke="#000000" stroke-width="1" x1="1593" x2="1593" y1="400" y2="414" />
<line id="Group20_Group19_Group18_Line35" stroke="#000000" stroke-width="1" x1="1618" x2="1618" y1="400" y2="414" />
<line id="Group20_Group19_Group18_Line36" stroke="#000000" stroke-width="1" x1="1643" x2="1643" y1="400" y2="414" />
<line id="Group20_Group19_Group18_Line37" stroke="#000000" stroke-width="1" x1="1668" x2="1668" y1="400" y2="414" />
<line id="Group20_Group19_Group18_Line38" stroke="#000000" stroke-width="1" x1="1693" x2="1693" y1="400" y2="414" />
<line id="Group20_Group19_Group18_Line39" stroke="#000000" stroke-width="1" x1="1718" x2="1718" y1="400" y2="414" />
<line id="Group20_Group19_Group18_Line40" stroke="#000000" stroke-width="1" x1="1743" x2="1743" y1="400" y2="414" />
<line id="Group20_Group19_Group18_Line41" stroke="#000000" stroke-width="1" x1="1769" x2="1769" y1="401" y2="415" />
<g height="27" id="Group20_Group19_Group18_Group16" width="607" x="1164" y="422" >
<g height="26" id="Group20_Group19_Group18_Group16_Text160" width="28" x="1164" y="423" >
<text fill="#000000" font-family="SimSun" font-size="17" font-weight="bold" x="1164"  y="437" >00</text>
</g>
<g height="26" id="Group20_Group19_Group18_Group16_Text137" width="29" x="1189" y="423" >
<text fill="#000000" font-family="SimSun" font-size="17" font-weight="bold" x="1189"  y="437" >01</text>
</g>
<g height="26" id="Group20_Group19_Group18_Group16_Text138" width="28" x="1215" y="423" >
<text fill="#000000" font-family="SimSun" font-size="17" font-weight="bold" x="1215"  y="437" >02</text>
</g>
<g height="26" id="Group20_Group19_Group18_Group16_Text139" width="28" x="1240" y="423" >
<text fill="#000000" font-family="SimSun" font-size="17" font-weight="bold" x="1240"  y="437" >03</text>
</g>
<g height="26" id="Group20_Group19_Group18_Group16_Text140" width="28" x="1265" y="423" >
<text fill="#000000" font-family="SimSun" font-size="17" font-weight="bold" x="1265"  y="437" >04</text>
</g>
<g height="27" id="Group20_Group19_Group18_Group16_Text141" width="26" x="1290" y="422" >
<text fill="#000000" font-family="SimSun" font-size="17" font-weight="bold" x="1290"  y="436" >05</text>
</g>
<g height="26" id="Group20_Group19_Group18_Group16_Text142" width="29" x="1312" y="423" >
<text fill="#000000" font-family="SimSun" font-size="17" font-weight="bold" x="1312"  y="437" >06</text>
</g>
<g height="26" id="Group20_Group19_Group18_Group16_Text143" width="29" x="1337" y="423" >
<text fill="#000000" font-family="SimSun" font-size="17" font-weight="bold" x="1337"  y="437" >07</text>
</g>
<g height="26" id="Group20_Group19_Group18_Group16_Text144" width="29" x="1362" y="423" >
<text fill="#000000" font-family="SimSun" font-size="17" font-weight="bold" x="1362"  y="437" >08</text>
</g>
<g height="26" id="Group20_Group19_Group18_Group16_Text145" width="29" x="1387" y="423" >
<text fill="#000000" font-family="SimSun" font-size="17" font-weight="bold" x="1387"  y="437" >09</text>
</g>
<g height="26" id="Group20_Group19_Group18_Group16_Text146" width="32" x="1412" y="423" >
<text fill="#000000" font-family="SimSun" font-size="17" font-weight="bold" x="1412"  y="437" >10</text>
</g>
<g height="26" id="Group20_Group19_Group18_Group16_Text147" width="29" x="1440" y="423" >
<text fill="#000000" font-family="SimSun" font-size="17" font-weight="bold" x="1440"  y="437" >11</text>
</g>
<g height="26" id="Group20_Group19_Group18_Group16_Text148" width="29" x="1465" y="423" >
<text fill="#000000" font-family="SimSun" font-size="17" font-weight="bold" x="1465"  y="437" >12</text>
</g>
<g height="26" id="Group20_Group19_Group18_Group16_Text149" width="29" x="1490" y="423" >
<text fill="#000000" font-family="SimSun" font-size="17" font-weight="bold" x="1490"  y="437" >13</text>
</g>
<g height="26" id="Group20_Group19_Group18_Group16_Text150" width="29" x="1515" y="423" >
<text fill="#000000" font-family="SimSun" font-size="17" font-weight="bold" x="1515"  y="437" >14</text>
</g>
<g height="26" id="Group20_Group19_Group18_Group16_Text151" width="29" x="1540" y="423" >
<text fill="#000000" font-family="SimSun" font-size="17" font-weight="bold" x="1540"  y="437" >15</text>
</g>
<g height="26" id="Group20_Group19_Group18_Group16_Text152" width="29" x="1565" y="423" >
<text fill="#000000" font-family="SimSun" font-size="17" font-weight="bold" x="1565"  y="437" >16</text>
</g>
<g height="26" id="Group20_Group19_Group18_Group16_Text153" width="28" x="1591" y="423" >
<text fill="#000000" font-family="SimSun" font-size="17" font-weight="bold" x="1591"  y="437" >17</text>
</g>
<g height="26" id="Group20_Group19_Group18_Group16_Text154" width="28" x="1616" y="423" >
<text fill="#000000" font-family="SimSun" font-size="17" font-weight="bold" x="1616"  y="437" >18</text>
</g>
<g height="26" id="Group20_Group19_Group18_Group16_Text155" width="28" x="1641" y="423" >
<text fill="#000000" font-family="SimSun" font-size="17" font-weight="bold" x="1641"  y="437" >19</text>
</g>
<g height="26" id="Group20_Group19_Group18_Group16_Text156" width="29" x="1666" y="423" >
<text fill="#000000" font-family="SimSun" font-size="17" font-weight="bold" x="1666"  y="437" >20</text>
</g>
<g height="26" id="Group20_Group19_Group18_Group16_Text157" width="29" x="1691" y="423" >
<text fill="#000000" font-family="SimSun" font-size="17" font-weight="bold" x="1691"  y="437" >21</text>
</g>
<g height="26" id="Group20_Group19_Group18_Group16_Text158" width="29" x="1716" y="423" >
<text fill="#000000" font-family="SimSun" font-size="17" font-weight="bold" x="1716"  y="437" >22</text>
</g>
<g height="26" id="Group20_Group19_Group18_Group16_Text159" width="29" x="1742" y="423" >
<text fill="#000000" font-family="SimSun" font-size="17" font-weight="bold" x="1742"  y="437" >23</text>
</g>
</g>
<line id="Group20_Group19_Group18_Line42" stroke="#000000" stroke-width="1" x1="1168" x2="1775" y1="416" y2="415" />
</g>
<polyline fill="none" id="Group20_Group19_Curve2" points=" 1181,380 1181,380 1205,388 1230,386 1255,388 1280,387 1305,388 1329,380 1354,363 1379,333 1404,276 1429,266 1454,261 1478,257 1503,275 1528,269 1553,264 1578,249 1603,256 1627,268 1652,333 1677,339 1702,364 1727,379 1753,384 1753,384" stroke="#0000ff" stroke-width="1" />
</g>
</g>
<g height="33" id="Text167" width="237" x="1344" y="162" >
<text fill="#000000" font-family="SimSun" font-size="17" font-weight="bold" x="1344"  y="176" >24小时折煤总能耗趋势图</text>
</g>
<g height="46" id="Text169" width="373" x="412" y="520" >
<text fill="#000000" font-family="STLiti" font-size="31" font-weight="bold" x="412"  y="548" >本月建筑折煤总能耗：</text>
</g>
<g height="79" id="Group21" width="69" x="952" y="499" >
<image height="51" id="Group21_Image14" width="68" x="952" xlink:href="../image/gjsws/fz.png" y="499" />
<g height="26" id="Group21_Text172" width="62" x="955" y="551" >
<text fill="#000000" font-family="SimSun" font-size="15" font-weight="bold" x="955"  y="563" >综合楼</text>
</g>
</g>
<a id="Group22_link_elem" onclick="if (window.openPage) {openPage(evt,'能效系统/建筑总耗能_科研楼总能耗.svg','_self', '');}" target="_self" xlink:href="能效系统/建筑总耗能_科研楼总能耗.svg" >
<g height="77" id="Group22" width="67" x="1173" y="501" >
<image height="50" id="Group22_Image15" width="67" x="1173" xlink:href="../image/gjsws/fz.png" y="501" />
<g height="26" id="Group22_Text173" width="61" x="1176" y="552" >
<text fill="#000000" font-family="SimSun" font-size="15" font-weight="bold" x="1176"  y="564" >科研楼</text>
</g>
</g>
</a>
<g height="77" id="Group23" width="70" x="1393" y="501" >
<image height="50" id="Group23_Image16" width="67" x="1394" xlink:href="../image/gjsws/fz.png" y="501" />
<g height="26" id="Group23_Text174" width="70" x="1393" y="552" >
<text fill="#000000" font-family="SimSun" font-size="15" font-weight="bold" x="1393"  y="564" >实验A组</text>
</g>
</g>
<g height="77" id="Group24" width="70" x="1617" y="501" >
<image height="50" id="Group24_Image17" width="67" x="1618" xlink:href="../image/gjsws/fz.png" y="501" />
<g height="26" id="Group24_Text175" width="70" x="1617" y="552" >
<text fill="#000000" font-family="SimSun" font-size="15" font-weight="bold" x="1617"  y="564" >实验B组</text>
</g>
</g>
<g height="48" id="Text176" width="91" x="1028" y="518" >
<text fill="#000000" font-family="STLiti" font-size="31" font-weight="bold" x="1028"  y="546" >98.77</text>
</g>
<g height="48" id="Text177" width="108" x="1261" y="515" >
<text fill="#000000" font-family="STLiti" font-size="31" font-weight="bold" x="1261"  y="543" >243.75</text>
</g>
<g height="48" id="Text178" width="88" x="1489" y="514" >
<text fill="#000000" font-family="STLiti" font-size="31" font-weight="bold" x="1489"  y="542" >43.23</text>
</g>
<g height="48" id="Text179" width="91" x="1697" y="515" >
<text fill="#000000" font-family="STLiti" font-size="31" font-weight="bold" x="1697"  y="543" >52.25</text>
</g>
<line id="Line50" stroke="#000000" stroke-width="1" x1="447" x2="1153" y1="737" y2="736" />
<line id="Line51" stroke="#000000" stroke-width="1" x1="447" x2="1153" y1="762" y2="761" />
<line id="Line52" stroke="#000000" stroke-width="1" x1="447" x2="1153" y1="787" y2="786" />
<line id="Line53" stroke="#000000" stroke-width="1" x1="447" x2="1153" y1="812" y2="811" />
<line id="Line54" stroke="#000000" stroke-width="1" x1="447" x2="1153" y1="837" y2="836" />
<line id="Line55" stroke="#000000" stroke-width="1" x1="447" x2="1153" y1="864" y2="863" />
<line id="Line56" stroke="#000000" stroke-width="1" x1="448" x2="1154" y1="891" y2="890" />
<rect fill="url(#lineargradient#ffff00#RToL)" height="52" id="Rect16" stroke="#000000" stroke-width="1" width="27" x="838" y="838" />
<a id="Rect15_link_elem" onclick="if (window.openPage) {openPage(evt,'能效系统/用电耗能_分区用电.svg','_self', '');}" target="_self" xlink:href="能效系统/用电耗能_分区用电.svg" >
<rect fill="url(#lineargradient#af0000#RToL)" height="197" id="Rect15" stroke="#000000" stroke-width="1" width="27" x="506" y="693" />
</a>
<a id="Rect70_link_elem" onclick="if (window.openPage) {openPage(evt,'能效系统/用水耗能_分区用水.svg','_self', '');}" target="_self" xlink:href="能效系统/用水耗能_分区用水.svg" >
<rect fill="url(#lineargradient#55ff00#RToL)" height="96" id="Rect70" stroke="#000000" stroke-width="1" width="27" x="617" y="794" />
</a>
<rect fill="url(#lineargradient#ff55ff#RToL)" height="50" id="Rect71" stroke="#000000" stroke-width="1" width="27" x="727" y="840" />
<rect fill="url(#lineargradient#0000ff#RToL)" height="87" id="Rect72" stroke="#000000" stroke-width="1" width="27" x="948" y="803" />
<rect fill="url(#lineargradient#00aaff#RToL)" height="37" id="Rect73" stroke="#000000" stroke-width="1" width="24" x="1059" y="853" />
<g height="26" id="Text180" width="27" x="507" y="912" >
<text fill="#000000" font-family="SimSun" font-size="15" font-weight="bold" x="507"  y="924" >电</text>
</g>
<g height="26" id="Text181" width="27" x="618" y="912" >
<text fill="#000000" font-family="SimSun" font-size="15" font-weight="bold" x="618"  y="924" >水</text>
</g>
<g height="26" id="Text182" width="27" x="731" y="912" >
<text fill="#000000" font-family="SimSun" font-size="15" font-weight="bold" x="731"  y="924" >气</text>
</g>
<g height="26" id="Text183" width="44" x="829" y="912" >
<text fill="#000000" font-family="SimSun" font-size="15" font-weight="bold" x="829"  y="924" >供热</text>
</g>
<g height="26" id="Text184" width="44" x="938" y="912" >
<text fill="#000000" font-family="SimSun" font-size="15" font-weight="bold" x="938"  y="924" >供冷</text>
</g>
<g height="26" id="Text185" width="44" x="1051" y="912" >
<text fill="#000000" font-family="SimSun" font-size="15" font-weight="bold" x="1051"  y="924" >其它</text>
</g>
<rect fill="none" height="210" id="Rect9" stroke="#000000" stroke-width="1" width="135" x="1674" y="696" />
<rect fill="#ff0000" height="18" id="Rect10" stroke="#000000" stroke-width="1" width="20" x="1687" y="710" />
<g height="27" id="Text44" width="28" x="1716" y="705" >
<text fill="#000000" font-family="SimSun" font-size="15" font-weight="bold" x="1716"  y="717" >电</text>
</g>
<rect fill="#55ff00" height="18" id="Rect11" stroke="#000000" stroke-width="1" width="20" x="1687" y="741" />
<g height="27" id="Text45" width="28" x="1716" y="738" >
<text fill="#000000" font-family="SimSun" font-size="15" font-weight="bold" x="1716"  y="750" >水</text>
</g>
<rect fill="#ff55ff" height="18" id="Rect12" stroke="#000000" stroke-width="1" width="20" x="1687" y="772" />
<g height="27" id="Text46" width="28" x="1716" y="768" >
<text fill="#000000" font-family="SimSun" font-size="15" font-weight="bold" x="1716"  y="780" >气</text>
</g>
<rect fill="#ffff00" height="17" id="Rect13" stroke="#000000" stroke-width="1" width="20" x="1687" y="805" />
<g height="27" id="Text47" width="45" x="1716" y="799" >
<text fill="#000000" font-family="SimSun" font-size="15" font-weight="bold" x="1716"  y="811" >供热</text>
</g>
<rect fill="#ff0000" height="18" id="Rect74" stroke="#000000" stroke-width="1" width="20" x="1687" y="710" />
<g height="27" id="Text186" width="28" x="1716" y="705" >
<text fill="#000000" font-family="SimSun" font-size="15" font-weight="bold" x="1716"  y="717" >电</text>
</g>
<rect fill="#55ff00" height="18" id="Rect75" stroke="#000000" stroke-width="1" width="20" x="1687" y="741" />
<g height="27" id="Text187" width="28" x="1716" y="738" >
<text fill="#000000" font-family="SimSun" font-size="15" font-weight="bold" x="1716"  y="750" >水</text>
</g>
<rect fill="#ff55ff" height="18" id="Rect76" stroke="#000000" stroke-width="1" width="20" x="1687" y="772" />
<g height="27" id="Text188" width="28" x="1716" y="768" >
<text fill="#000000" font-family="SimSun" font-size="15" font-weight="bold" x="1716"  y="780" >气</text>
</g>
<rect fill="#ffff00" height="17" id="Rect77" stroke="#000000" stroke-width="1" width="20" x="1687" y="805" />
<g height="27" id="Text189" width="45" x="1716" y="799" >
<text fill="#000000" font-family="SimSun" font-size="15" font-weight="bold" x="1716"  y="811" >供热</text>
</g>
<rect fill="#0000ff" height="18" id="Rect78" stroke="#000000" stroke-width="1" width="20" x="1688" y="841" />
<g height="27" id="Text190" width="45" x="1717" y="836" >
<text fill="#000000" font-family="SimSun" font-size="15" font-weight="bold" x="1717"  y="848" >供冷</text>
</g>
<rect fill="#00aaff" height="18" id="Rect79" stroke="#000000" stroke-width="1" width="20" x="1688" y="872" />
<g height="27" id="Text191" width="81" x="1717" y="869" >
<text fill="#000000" font-family="SimSun" font-size="15" font-weight="bold" x="1717"  y="881" >其它能源</text>
</g>
<g height="26" id="Text194" width="37" x="1616" y="908" >
<text fill="#000000" font-family="SimSun" font-size="15" font-weight="bold" x="1616"  y="920" >18%</text>
</g>
<polyline fill="none" id="Curve5" points=" 1275,637 1329,638 1359,680" stroke="#000000" stroke-width="1" />
<g height="26" id="Text195" width="37" x="1594" y="643" >
<text fill="#000000" font-family="SimSun" font-size="15" font-weight="bold" x="1594"  y="655" >38%</text>
</g>
<polyline fill="none" id="Curve6" points=" 1488,687 1513,655 1585,655" stroke="#000000" stroke-width="1" />
<g height="26" id="Text196" width="28" x="1239" y="624" >
<text fill="#000000" font-family="SimSun" font-size="15" font-weight="bold" x="1239"  y="636" >7%</text>
</g>
<polyline fill="none" id="Curve7" points=" 1241,689 1297,688 1318,713" stroke="#000000" stroke-width="1" />
<g height="26" id="Text197" width="28" x="1200" y="846" >
<text fill="#000000" font-family="SimSun" font-size="15" font-weight="bold" x="1200"  y="858" >9%</text>
</g>
<polyline fill="none" id="Curve8" points=" 1230,862 1279,862 1298,851" stroke="#000000" stroke-width="1" />
<g height="26" id="Text198" width="37" x="1194" y="672" >
<text fill="#000000" font-family="SimSun" font-size="15" font-weight="bold" x="1194"  y="684" >11%</text>
</g>
<polyline fill="none" id="Curve9" points=" 1485,909 1510,922 1614,922" stroke="#000000" stroke-width="1" />
<polyline fill="none" id="Curve10" points=" 1293,931 1342,931 1362,903" stroke="#000000" stroke-width="1" />
<g height="26" id="Text199" width="37" x="1236" y="916" >
<text fill="#000000" font-family="SimSun" font-size="15" font-weight="bold" x="1236"  y="928" >17%</text>
</g>
<g height="29" id="Text200" width="162" x="668" y="624" >
<text fill="#000000" font-family="SimSun" font-size="19" font-weight="bold" x="668"  y="640" >本月能耗折标准煤</text>
</g>
<rect fill="none" height="323" id="Rect86" stroke="#000000" stroke-dasharray="15,3" stroke-width="1" width="733" x="1104" y="152" />
<g height="43" id="Text201" width="189" x="986" y="87" >
<text fill="#000000" font-family="STFangsong" font-size="31" font-weight="bold" x="986"  y="115" >园区总能耗</text>
</g>
<g height="48" id="Text204" width="175" x="776" y="519" >
<text fill="#000000" font-family="STLiti" font-size="31" font-weight="bold" x="776"  y="547" >438万焦耳</text>
</g>
<g height="29" id="Text205" width="162" x="668" y="624" >
<text fill="#000000" font-family="SimSun" font-size="19" font-weight="bold" x="668"  y="640" >本月能耗折标准煤</text>
</g>
<g height="31" id="Text206" width="130" x="909" y="624" >
<text fill="#000000" font-family="STSong" font-size="17" font-weight="bold" x="909"  y="638" >单位：万焦耳</text>
</g>
<g height="31" id="Text207" width="130" x="1623" y="159" >
<text fill="#000000" font-family="STSong" font-size="17" font-weight="bold" x="1623"  y="173" >单位：万焦耳</text>
</g>
<g height="29" id="Text218" width="43" x="1110" y="351" >
<text fill="#000000" font-family="SimSun" font-size="17" font-weight="bold" x="1110"  y="365" >0.5</text>
</g>
<g height="29" id="Text219" width="43" x="1110" y="306" >
<text fill="#000000" font-family="SimSun" font-size="17" font-weight="bold" x="1110"  y="320" >1.0</text>
</g>
<g height="29" id="Text220" width="43" x="1110" y="216" >
<text fill="#000000" font-family="SimSun" font-size="17" font-weight="bold" x="1110"  y="230" >2.0</text>
</g>
<g height="29" id="Text225" width="43" x="1110" y="260" >
<text fill="#000000" font-family="SimSun" font-size="17" font-weight="bold" x="1110"  y="274" >1.5</text>
</g>
<image height="325" id="Image6" width="706" x="378" xlink:href="../image/gjsws/大楼.png" y="149" />
<path d="M1412,802 l109,70 a130,130 0 0,0 -157,-190 z" fill="#ff0000" id="Pie1" stroke="#000000" stroke-width="1" />
<path d="M1414,801 l-8,129 a128,130 0 0,0 115,-59 z" fill="#00ff00" id="Pie2" stroke="#000000" stroke-width="1" />
<path d="M1414,801 l-117,52 a128,130 0 0,0 109,77 z" fill="#0000ff" id="Pie3" stroke="#000000" stroke-width="1" />
<path d="M1414,801 l-126,-20 a128,130 0 0,0 9,72 z" fill="#ff55ff" id="Pie4" stroke="#000000" stroke-width="1" />
<path d="M1414,801 l-84,-98 a128,130 0 0,0 -42,78 z" fill="#ffff00" id="Pie5" stroke="#000000" stroke-width="1" />
<path d="M1414,801 l-48,-120 a128,130 0 0,0 -36,22 z" fill="#00aaff" id="Pie6" stroke="#000000" stroke-width="1" />
<g height="29" id="Text226" width="21" x="1128" y="405" >
<text fill="#000000" font-family="SimSun" font-size="17" font-weight="bold" x="1128"  y="419" >0</text>
</g>
</svg>