<?xml version="1.0" encoding="utf-8"?>
<svg height="1080" preserveAspectRatio="none" vdfName="用电耗能_中央空调" vdfPath="D:/ics8000/cbin/xview/pages/能效系统/用电耗能_中央空调.vdf" viewBox="0 0 1920 1080" width="1920" xmlns="http://www.w3.org/2000/svg" xmlns:vn="http://www.xjgc.com/xview/vision" xmlns:xlink="http://www.w3.org/1999/xlink" >
<defs id="doc_defs" >
<pattern height="1080" id="root_bg" patternUnits="userSpaceOnUse" width="1920" >
<rect fill="#000000" height="100%" width="100%" />
<image height="1080" width="1920" xlink:href="../image/gjsws/bg.jpg" />
</pattern>
<pattern id="lineargradient#e1e1e1" patternUnits="userSpaceOnUse" x="0" y="0" >
<linearGradient gradientUnits="objectBoundingBox" id="lineargradient#e1e1e1#UToD" x1="50%" x2="50%" y1="0" y2="100%" >
<stop offset="0" stop-color="#e1e1e1" />
<stop offset="1" stop-color="#707070" />
</linearGradient>
</pattern>
<pattern id="lineargradient#e1e1e1" patternUnits="userSpaceOnUse" x="0" y="0" >
<linearGradient gradientUnits="objectBoundingBox" id="lineargradient#e1e1e1#UToD" x1="50%" x2="50%" y1="0" y2="100%" >
<stop offset="0" stop-color="#e1e1e1" />
<stop offset="1" stop-color="#707070" />
</linearGradient>
</pattern>
<pattern id="lineargradient#e1e1e1" patternUnits="userSpaceOnUse" x="0" y="0" >
<linearGradient gradientUnits="objectBoundingBox" id="lineargradient#e1e1e1#UToD" x1="50%" x2="50%" y1="0" y2="100%" >
<stop offset="0" stop-color="#e1e1e1" />
<stop offset="1" stop-color="#707070" />
</linearGradient>
</pattern>
<pattern id="lineargradient#e1e1e1" patternUnits="userSpaceOnUse" x="0" y="0" >
<linearGradient gradientUnits="objectBoundingBox" id="lineargradient#e1e1e1#MToUD" x1="50%" x2="50%" y1="0" y2="100%" >
<stop offset="0" stop-color="#707070" />
<stop offset="0.5" stop-color="#e1e1e1" />
<stop offset="1" stop-color="#707070" />
</linearGradient>
</pattern>
<pattern id="lineargradient#003f5d" patternUnits="userSpaceOnUse" x="0" y="0" >
<linearGradient gradientUnits="objectBoundingBox" id="lineargradient#003f5d#MToUD" x1="50%" x2="50%" y1="0" y2="100%" >
<stop offset="0" stop-color="#003f5d" />
<stop offset="0.5" stop-color="#007eba" />
<stop offset="1" stop-color="#003f5d" />
</linearGradient>
</pattern>
<pattern id="lineargradient#b8b8b8" patternUnits="userSpaceOnUse" x="0" y="0" >
<linearGradient gradientUnits="objectBoundingBox" id="lineargradient#b8b8b8#MToUD" x1="50%" x2="50%" y1="0" y2="100%" >
<stop offset="0" stop-color="#7b7b7b" />
<stop offset="0.5" stop-color="#ffffff" />
<stop offset="1" stop-color="#7b7b7b" />
</linearGradient>
</pattern>
<pattern id="lineargradient#003f5d" patternUnits="userSpaceOnUse" x="0" y="0" >
<linearGradient gradientUnits="objectBoundingBox" id="lineargradient#003f5d#MToUD" x1="50%" x2="50%" y1="0" y2="100%" >
<stop offset="0" stop-color="#003f5d" />
<stop offset="0.5" stop-color="#007eba" />
<stop offset="1" stop-color="#003f5d" />
</linearGradient>
</pattern>
<pattern id="lineargradient#003f5d" patternUnits="userSpaceOnUse" x="0" y="0" >
<linearGradient gradientUnits="objectBoundingBox" id="lineargradient#003f5d#MToUD" x1="50%" x2="50%" y1="0" y2="100%" >
<stop offset="0" stop-color="#003f5d" />
<stop offset="0.5" stop-color="#007eba" />
<stop offset="1" stop-color="#003f5d" />
</linearGradient>
</pattern>
<pattern id="lineargradient#003f5d" patternUnits="userSpaceOnUse" x="0" y="0" >
<linearGradient gradientUnits="objectBoundingBox" id="lineargradient#003f5d#MToUD" x1="50%" x2="50%" y1="0" y2="100%" >
<stop offset="0" stop-color="#003f5d" />
<stop offset="0.5" stop-color="#007eba" />
<stop offset="1" stop-color="#003f5d" />
</linearGradient>
</pattern>
<pattern id="lineargradient#003f5d" patternUnits="userSpaceOnUse" x="0" y="0" >
<linearGradient gradientUnits="objectBoundingBox" id="lineargradient#003f5d#MToUD" x1="50%" x2="50%" y1="0" y2="100%" >
<stop offset="0" stop-color="#003f5d" />
<stop offset="0.5" stop-color="#007eba" />
<stop offset="1" stop-color="#003f5d" />
</linearGradient>
</pattern>
<pattern id="lineargradient#e1e1e1" patternUnits="userSpaceOnUse" x="0" y="0" >
<linearGradient gradientUnits="objectBoundingBox" id="lineargradient#e1e1e1#MToUD" x1="50%" x2="50%" y1="0" y2="100%" >
<stop offset="0" stop-color="#707070" />
<stop offset="0.5" stop-color="#e1e1e1" />
<stop offset="1" stop-color="#707070" />
</linearGradient>
</pattern>
<pattern id="lineargradient#e1e1e1" patternUnits="userSpaceOnUse" x="0" y="0" >
<linearGradient gradientUnits="objectBoundingBox" id="lineargradient#e1e1e1#MToUD" x1="50%" x2="50%" y1="0" y2="100%" >
<stop offset="0" stop-color="#707070" />
<stop offset="0.5" stop-color="#e1e1e1" />
<stop offset="1" stop-color="#707070" />
</linearGradient>
</pattern>
<pattern id="lineargradient#e1e1e1" patternUnits="userSpaceOnUse" x="0" y="0" >
<linearGradient gradientUnits="objectBoundingBox" id="lineargradient#e1e1e1#MToUD" x1="50%" x2="50%" y1="0" y2="100%" >
<stop offset="0" stop-color="#707070" />
<stop offset="0.5" stop-color="#e1e1e1" />
<stop offset="1" stop-color="#707070" />
</linearGradient>
</pattern>
<pattern id="lineargradient#e1e1e1" patternUnits="userSpaceOnUse" x="0" y="0" >
<linearGradient gradientUnits="objectBoundingBox" id="lineargradient#e1e1e1#MToUD" x1="50%" x2="50%" y1="0" y2="100%" >
<stop offset="0" stop-color="#707070" />
<stop offset="0.5" stop-color="#e1e1e1" />
<stop offset="1" stop-color="#707070" />
</linearGradient>
</pattern>
<pattern id="lineargradient#e1e1e1" patternUnits="userSpaceOnUse" x="0" y="0" >
<linearGradient gradientUnits="objectBoundingBox" id="lineargradient#e1e1e1#MToUD" x1="50%" x2="50%" y1="0" y2="100%" >
<stop offset="0" stop-color="#707070" />
<stop offset="0.5" stop-color="#e1e1e1" />
<stop offset="1" stop-color="#707070" />
</linearGradient>
</pattern>
<pattern id="lineargradient#e1e1e1" patternUnits="userSpaceOnUse" x="0" y="0" >
<linearGradient gradientUnits="objectBoundingBox" id="lineargradient#e1e1e1#MToUD" x1="50%" x2="50%" y1="0" y2="100%" >
<stop offset="0" stop-color="#707070" />
<stop offset="0.5" stop-color="#e1e1e1" />
<stop offset="1" stop-color="#707070" />
</linearGradient>
</pattern>
<pattern id="lineargradient#e1e1e1" patternUnits="userSpaceOnUse" x="0" y="0" >
<linearGradient gradientUnits="objectBoundingBox" id="lineargradient#e1e1e1#MToUD" x1="50%" x2="50%" y1="0" y2="100%" >
<stop offset="0" stop-color="#707070" />
<stop offset="0.5" stop-color="#e1e1e1" />
<stop offset="1" stop-color="#707070" />
</linearGradient>
</pattern>
<pattern id="lineargradient#e1e1e1" patternUnits="userSpaceOnUse" x="0" y="0" >
<linearGradient gradientUnits="objectBoundingBox" id="lineargradient#e1e1e1#MToUD" x1="50%" x2="50%" y1="0" y2="100%" >
<stop offset="0" stop-color="#707070" />
<stop offset="0.5" stop-color="#e1e1e1" />
<stop offset="1" stop-color="#707070" />
</linearGradient>
</pattern>
<pattern id="lineargradient#e1e1e1" patternUnits="userSpaceOnUse" x="0" y="0" >
<linearGradient gradientUnits="objectBoundingBox" id="lineargradient#e1e1e1#MToUD" x1="50%" x2="50%" y1="0" y2="100%" >
<stop offset="0" stop-color="#707070" />
<stop offset="0.5" stop-color="#e1e1e1" />
<stop offset="1" stop-color="#707070" />
</linearGradient>
</pattern>
<pattern id="lineargradient#e1e1e1" patternUnits="userSpaceOnUse" x="0" y="0" >
<linearGradient gradientUnits="objectBoundingBox" id="lineargradient#e1e1e1#UToD" x1="50%" x2="50%" y1="0" y2="100%" >
<stop offset="0" stop-color="#e1e1e1" />
<stop offset="1" stop-color="#707070" />
</linearGradient>
</pattern>
<pattern height="10" id="bdiag#ffffff" patternUnits="userSpaceOnUse" width="10" x="0" y="0" >
<line stroke="#ffffff" stroke-width="1" x1="0" x2="5" y1="5" y2="0" />
<line stroke="#ffffff" stroke-width="1" x1="5" x2="10" y1="10" y2="5" />
</pattern>
<pattern id="lineargradient#000000" patternUnits="userSpaceOnUse" x="0" y="0" >
<linearGradient gradientUnits="objectBoundingBox" id="lineargradient#000000#RToL" x1="0%" x2="100%" y1="50%" y2="50%" >
<stop offset="0" stop-color="#000000" />
<stop offset="1" stop-color="#000000" />
</linearGradient>
</pattern>
<pattern id="lineargradient#000000" patternUnits="userSpaceOnUse" x="0" y="0" >
<linearGradient gradientUnits="objectBoundingBox" id="lineargradient#000000#RToL" x1="0%" x2="100%" y1="50%" y2="50%" >
<stop offset="0" stop-color="#000000" />
<stop offset="1" stop-color="#000000" />
</linearGradient>
</pattern>
</defs>
<rect fill="url(#root_bg)" height="100%" id="svg_root_bkgrdrect" width="100%" x="0" y="0" />
<polyline fill="none" id="Foldline3" points=" 1171,875 1849,875 1849,989 1006,989 1006,875 1034,875" stroke="#000000" stroke-dasharray="15,3" stroke-width="1" />
<rect fill="url(#lineargradient#e1e1e1#UToD)" height="86" id="Rect7" stroke="#a6a6a6" stroke-width="1" width="189" x="1651" y="895" />
<rect fill="url(#lineargradient#e1e1e1#UToD)" height="87" id="Rect8" stroke="#a6a6a6" stroke-width="1" width="198" x="1445" y="892" />
<rect fill="url(#lineargradient#e1e1e1#UToD)" height="88" id="Rect5" stroke="#a6a6a6" stroke-width="1" width="210" x="1228" y="891" />
<rect fill="url(#lineargradient#e1e1e1#MToUD)" height="59" id="Rect100" stroke="#ffffff" stroke-width="1" width="405" x="1005" y="191" />
<a id="Rect28_link_elem" onclick="if (window.openPage) {openPage(evt,'能效系统/用电耗能_分区用电.svg','_self', '');}" target="_self" xlink:href="能效系统/用电耗能_分区用电.svg" >
<rect fill="url(#lineargradient#003f5d#MToUD)" height="50" id="Rect28" stroke="#00557f" stroke-width="1" width="170" x="372" y="70" />
<g height="50" id="innertext_Rect28" width="170" x="372" y="70" >
<text fill="#ffffff" font-family="SimHei" font-size="19" font-weight="bold" x="415" xml:space="'preserve'" y="97" >分区用电</text>
</g>
</a>
<a id="Rect29_link_elem" onclick="if (window.openPage) {openPage(evt,'变电站自动化系统/35kV降压站.svg','_self', '');}" target="_self" xlink:href="变电站自动化系统/35kV降压站.svg" >
<rect fill="url(#lineargradient#b8b8b8#MToUD)" height="50" id="Rect29" stroke="#d4d4d4" stroke-width="1" width="170" x="1052" y="70" />
<g height="50" id="innertext_Rect29" width="170" x="1052" y="70" >
<text fill="#000000" font-family="SimHei" font-size="19" font-weight="bold" x="1095" xml:space="'preserve'" y="97" >中央空调</text>
</g>
</a>
<a id="Rect83_link_elem" onclick="if (window.openPage) {openPage(evt,'能效系统/用电耗能_高压系统图.svg','_self', '');}" target="_self" xlink:href="能效系统/用电耗能_高压系统图.svg" >
<rect fill="url(#lineargradient#003f5d#MToUD)" height="50" id="Rect83" stroke="#00557f" stroke-width="1" width="170" x="542" y="70" />
<g height="50" id="innertext_Rect83" width="170" x="542" y="70" >
<text fill="#ffffff" font-family="SimHei" font-size="19" font-weight="bold" x="574" xml:space="'preserve'" y="97" >高压系统图</text>
</g>
</a>
<a id="Rect84_link_elem" onclick="if (window.openPage) {openPage(evt,'能效系统/用电耗能_谐波分析图.svg','_self', '');}" target="_self" xlink:href="能效系统/用电耗能_谐波分析图.svg" >
<rect fill="url(#lineargradient#003f5d#MToUD)" height="50" id="Rect84" stroke="#00557f" stroke-width="1" width="170" x="882" y="70" />
<g height="50" id="innertext_Rect84" width="170" x="882" y="70" >
<text fill="#ffffff" font-family="SimHei" font-size="19" font-weight="bold" x="914" xml:space="'preserve'" y="97" >谐波分析图</text>
</g>
</a>
<a id="Rect85_link_elem" onclick="if (window.openPage) {openPage(evt,'能效系统/用电耗能_中央空调.svg','_self', '');}" target="_self" xlink:href="能效系统/用电耗能_中央空调.svg" >
<rect fill="url(#lineargradient#003f5d#MToUD)" height="50" id="Rect85" stroke="#00557f" stroke-width="1" width="170" x="712" y="70" />
<g height="50" id="innertext_Rect85" width="170" x="712" y="70" >
<text fill="#ffffff" font-family="SimHei" font-size="19" font-weight="bold" x="744" xml:space="'preserve'" y="97" >低压配电图</text>
</g>
</a>
<a id="Rect86_link_elem" onclick="if (window.openPage) {openPage(evt,'能效系统/用电耗能_楼层分布.svg','_self', '');}" target="_self" xlink:href="能效系统/用电耗能_楼层分布.svg" >
<rect fill="url(#lineargradient#003f5d#MToUD)" height="50" id="Rect86" stroke="#00557f" stroke-width="1" width="170" x="1222" y="70" />
<g height="50" id="innertext_Rect86" width="170" x="1222" y="70" >
<text fill="#ffffff" font-family="SimHei" font-size="19" font-weight="bold" x="1265" xml:space="'preserve'" y="97" >楼层分布</text>
</g>
</a>
<g height="52" id="Text64" width="133" x="1273" y="194" >
<rect fill="#000000" height="32" width="101" x="1289" y="204" />
<text fill="#ffffff" font-family="SimSun" font-size="26" font-weight="bold" x="1289" xml:space="'preserve'" y="227" >0.00℃</text>
</g>
<g height="26" id="Text74" width="105" x="1019" y="205" >
<text fill="#000000" font-family="SimSun" font-size="23" font-weight="bold" x="1019" xml:space="'preserve'" y="225" >商务厅温度</text>
</g>
<g height="36" id="Text93" width="152" x="1126" y="512" >
<text fill="#000000" font-family="SimSun" font-size="21" font-weight="bold" x="1126" xml:space="'preserve'" y="530" >空调实时数据</text>
</g>
<g height="31" id="Text94" width="108" x="1586" y="517" >
<text fill="#000000" font-family="SimSun" font-size="21" font-weight="bold" x="1586" xml:space="'preserve'" y="535" >空调占比</text>
</g>
<g height="34" id="Text95" width="58" x="1509" y="858" >
<rect fill="#f3f3f3" height="24" width="50" x="1509" y="858" />
<text fill="#000000" font-family="SimSun" font-size="21" font-weight="bold" x="1509" xml:space="'preserve'" y="876" >总值</text>
</g>
<g height="34" id="Text96" width="130" x="1034" y="855" >
<text fill="#000000" font-family="SimSun" font-size="21" font-weight="bold" x="1034" xml:space="'preserve'" y="873" >时耗能最低</text>
</g>
<g height="34" id="Text97" width="82" x="1702" y="857" >
<rect fill="#f3f3f3" height="24" width="75" x="1702" y="857" />
<text fill="#000000" font-family="SimSun" font-size="21" font-weight="bold" x="1702" xml:space="'preserve'" y="875" >平均值</text>
</g>
<g height="34" id="Text98" width="130" x="1255" y="856" >
<rect fill="#f3f3f3" height="24" width="125" x="1255" y="856" />
<text fill="#000000" font-family="SimSun" font-size="21" font-weight="bold" x="1255" xml:space="'preserve'" y="874" >时耗能最高</text>
</g>
<g height="34" id="Text99" width="154" x="598" y="612" >
<text fill="#000000" font-family="SimSun" font-size="21" font-weight="bold" x="598" xml:space="'preserve'" y="630" >空调能耗查询</text>
</g>
<rect fill="url(#lineargradient#e1e1e1#MToUD)" height="59" id="Rect107" stroke="#ffffff" stroke-width="1" width="405" x="1005" y="249" />
<g height="52" id="Text100" width="133" x="1273" y="252" >
<rect fill="#000000" height="32" width="101" x="1289" y="262" />
<text fill="#ffffff" font-family="SimSun" font-size="26" font-weight="bold" x="1289" xml:space="'preserve'" y="285" >0.00℃</text>
</g>
<g height="37" id="Text101" width="262" x="1019" y="263" >
<text fill="#000000" font-family="SimSun" font-size="23" font-weight="bold" x="1019" xml:space="'preserve'" y="283" >商务厅风阀温度设定</text>
</g>
<rect fill="url(#lineargradient#e1e1e1#MToUD)" height="59" id="Rect108" stroke="#ffffff" stroke-width="1" width="405" x="1005" y="308" />
<g height="52" id="Text102" width="133" x="1273" y="311" >
<rect fill="#000000" height="32" width="101" x="1289" y="321" />
<text fill="#ffffff" font-family="SimSun" font-size="26" font-weight="bold" x="1289" xml:space="'preserve'" y="344" >0.00℃</text>
</g>
<g height="37" id="Text103" width="178" x="1019" y="322" >
<text fill="#000000" font-family="SimSun" font-size="23" font-weight="bold" x="1019" xml:space="'preserve'" y="342" >水阀设定温度</text>
</g>
<rect fill="url(#lineargradient#e1e1e1#MToUD)" height="59" id="Rect109" stroke="#ffffff" stroke-width="1" width="405" x="1005" y="366" />
<g height="52" id="Text104" width="133" x="1273" y="369" >
<rect fill="#000000" height="32" width="101" x="1289" y="379" />
<text fill="#ffffff" font-family="SimSun" font-size="26" font-weight="bold" x="1289" xml:space="'preserve'" y="402" >0.00℃</text>
</g>
<g height="37" id="Text105" width="122" x="1019" y="380" >
<text fill="#000000" font-family="SimSun" font-size="23" font-weight="bold" x="1019" xml:space="'preserve'" y="400" >风管温度</text>
</g>
<rect fill="url(#lineargradient#e1e1e1#MToUD)" height="59" id="Rect110" stroke="#ffffff" stroke-width="1" width="405" x="1005" y="425" />
<g height="52" id="Text106" width="133" x="1273" y="428" >
<rect fill="#000000" height="32" width="101" x="1289" y="438" />
<text fill="#ffffff" font-family="SimSun" font-size="26" font-weight="bold" x="1289" xml:space="'preserve'" y="461" >0.00℃</text>
</g>
<g height="37" id="Text107" width="122" x="1019" y="439" >
<text fill="#000000" font-family="SimSun" font-size="23" font-weight="bold" x="1019" xml:space="'preserve'" y="459" >回风温度</text>
</g>
<rect fill="url(#lineargradient#e1e1e1#MToUD)" height="59" id="Rect111" stroke="#ffffff" stroke-width="1" width="405" x="1416" y="190" />
<g height="53" id="Text108" width="136" x="1683" y="194" >
<rect fill="#000000" height="31" width="86" x="1708" y="205" />
<text fill="#ffffff" font-family="SimSun" font-size="26" font-weight="bold" x="1708" xml:space="'preserve'" y="228" >0.00%</text>
</g>
<g height="37" id="Text109" width="178" x="1430" y="204" >
<text fill="#000000" font-family="SimSun" font-size="23" font-weight="bold" x="1430" xml:space="'preserve'" y="224" >票务大厅风阀</text>
</g>
<rect fill="url(#lineargradient#e1e1e1#MToUD)" height="59" id="Rect112" stroke="#ffffff" stroke-width="1" width="405" x="1416" y="248" />
<g height="37" id="Text111" width="178" x="1430" y="262" >
<text fill="#000000" font-family="SimSun" font-size="23" font-weight="bold" x="1430" xml:space="'preserve'" y="282" >大厅回风风阀</text>
</g>
<rect fill="url(#lineargradient#e1e1e1#MToUD)" height="59" id="Rect113" stroke="#ffffff" stroke-width="1" width="405" x="1416" y="307" />
<g height="37" id="Text113" width="178" x="1430" y="321" >
<text fill="#000000" font-family="SimSun" font-size="23" font-weight="bold" x="1430" xml:space="'preserve'" y="341" >票务大厅风阀</text>
</g>
<rect fill="url(#lineargradient#e1e1e1#MToUD)" height="59" id="Rect114" stroke="#ffffff" stroke-width="1" width="405" x="1416" y="365" />
<g height="37" id="Text115" width="109" x="1430" y="379" >
<text fill="#000000" font-family="SimSun" font-size="23" font-weight="bold" x="1430" xml:space="'preserve'" y="399" >新风阀1</text>
</g>
<rect fill="url(#lineargradient#e1e1e1#MToUD)" height="59" id="Rect115" stroke="#ffffff" stroke-width="1" width="405" x="1416" y="424" />
<g height="37" id="Text117" width="109" x="1430" y="438" >
<text fill="#000000" font-family="SimSun" font-size="23" font-weight="bold" x="1430" xml:space="'preserve'" y="458" >新风阀2</text>
</g>
<g height="53" id="Text118" width="136" x="1683" y="252" >
<rect fill="#000000" height="31" width="86" x="1708" y="263" />
<text fill="#ffffff" font-family="SimSun" font-size="26" font-weight="bold" x="1708" xml:space="'preserve'" y="286" >0.00%</text>
</g>
<g height="53" id="Text119" width="136" x="1682" y="310" >
<rect fill="#000000" height="31" width="86" x="1707" y="321" />
<text fill="#ffffff" font-family="SimSun" font-size="26" font-weight="bold" x="1707" xml:space="'preserve'" y="344" >0.00%</text>
</g>
<g height="53" id="Text120" width="136" x="1682" y="367" >
<rect fill="#000000" height="31" width="86" x="1707" y="378" />
<text fill="#ffffff" font-family="SimSun" font-size="26" font-weight="bold" x="1707" xml:space="'preserve'" y="401" >0.00%</text>
</g>
<g height="53" id="Text121" width="136" x="1684" y="428" >
<rect fill="#000000" height="31" width="86" x="1709" y="439" />
<text fill="#ffffff" font-family="SimSun" font-size="26" font-weight="bold" x="1709" xml:space="'preserve'" y="462" >0.00%</text>
</g>
<polyline fill="none" id="Foldline2" points=" 995,176 1847,176 1847,496 995,496 995,182" stroke="#000000" stroke-dasharray="15,3" stroke-width="1" />
<rect fill="url(#lineargradient#e1e1e1#UToD)" height="89" id="Rect6" stroke="#a6a6a6" stroke-width="1" width="208" x="1012" y="892" />
<g height="34" id="Text92" width="34" x="1029" y="897" >
<text fill="#000000" font-family="SimSun" font-size="21" x="1029" xml:space="'preserve'" y="915" >值</text>
</g>
<g height="34" id="Text122" width="58" x="1029" y="931" >
<text fill="#000000" font-family="SimSun" font-size="21" x="1029" xml:space="'preserve'" y="949" >时间</text>
</g>
<g height="34" id="Text123" width="58" x="1090" y="931" >
<text fill="#000000" font-family="SimSun" font-size="21" x="1090" xml:space="'preserve'" y="949" >6:13</text>
</g>
<g height="34" id="Text116" width="58" x="1090" y="897" >
<text fill="#000000" font-family="SimSun" font-size="21" x="1090" xml:space="'preserve'" y="915" >10.2</text>
</g>
<g height="33" id="Text124" width="33" x="1245" y="900" >
<text fill="#000000" font-family="SimSun" font-size="21" x="1245" xml:space="'preserve'" y="918" >值</text>
</g>
<g height="34" id="Text125" width="69" x="1319" y="932" >
<text fill="#000000" font-family="SimSun" font-size="21" x="1319" xml:space="'preserve'" y="950" >11:09</text>
</g>
<g height="33" id="Text126" width="45" x="1323" y="900" >
<text fill="#000000" font-family="SimSun" font-size="21" x="1323" xml:space="'preserve'" y="918" >2.5</text>
</g>
<g height="34" id="Text127" width="57" x="1245" y="932" >
<text fill="#000000" font-family="SimSun" font-size="21" x="1245" xml:space="'preserve'" y="950" >时间</text>
</g>
<g height="34" id="Text128" width="71" x="1513" y="916" >
<text fill="#000000" font-family="SimSun" font-size="21" x="1513" xml:space="'preserve'" y="934" >179.8</text>
</g>
<g height="34" id="Text129" width="57" x="1716" y="920" >
<text fill="#000000" font-family="SimSun" font-size="21" x="1716" xml:space="'preserve'" y="938" >30.1</text>
</g>
<rect fill="none" height="259" id="Rect116" stroke="#a6a6a6" stroke-width="1" width="413" x="1003" y="553" />
<polyline fill="none" id="Curve1" points=" 1039,743 1076,715 1104,728 1216,641 1250,660 1304,616 1375,644" stroke="#ff0000" stroke-width="2" />
<line id="Line1" stroke="#000000" stroke-width="1" x1="1224" x2="1224" y1="876" y2="983" />
<line id="Line2" stroke="#000000" stroke-width="1" x1="1443" x2="1443" y1="876" y2="983" />
<line id="Line3" stroke="#000000" stroke-width="1" x1="1647" x2="1647" y1="877" y2="984" />
<g height="32" id="Text65" width="23" x="414" y="916" >
<text fill="#000000" font-family="SimSun" font-size="15" font-weight="bold" x="414" xml:space="'preserve'" y="928" >0</text>
</g>
<g height="32" id="Text66" width="34" x="403" y="801" >
<text fill="#000000" font-family="SimSun" font-size="15" font-weight="bold" x="403" xml:space="'preserve'" y="813" >20</text>
</g>
<g height="32" id="Text68" width="34" x="403" y="744" >
<text fill="#000000" font-family="SimSun" font-size="15" font-weight="bold" x="403" xml:space="'preserve'" y="756" >30</text>
</g>
<g height="30" id="Text69" width="34" x="403" y="689" >
<text fill="#000000" font-family="SimSun" font-size="15" font-weight="bold" x="403" xml:space="'preserve'" y="701" >40</text>
</g>
<rect fill="#55aaff" height="56" id="Rect118" stroke="#ffffff" stroke-width="1" width="36" x="453" y="892" />
<rect fill="#55aaff" height="113" id="Rect18" stroke="#ffffff" stroke-width="1" width="36" x="697" y="835" />
<rect fill="#55aaff" height="83" id="Rect19" stroke="#ffffff" stroke-width="1" width="36" x="557" y="865" />
<rect fill="#55aaff" height="168" id="Rect20" stroke="#ffffff" stroke-width="1" width="36" x="628" y="780" />
<rect fill="#55aaff" height="120" id="Rect21" stroke="#ffffff" stroke-width="1" width="36" x="593" y="828" />
<rect fill="#55aaff" height="116" id="Rect22" stroke="#ffffff" stroke-width="1" width="36" x="524" y="832" />
<rect fill="#55aaff" height="186" id="Rect23" stroke="#ffffff" stroke-width="1" width="35" x="664" y="762" />
<rect fill="#55aaff" height="99" id="Rect24" stroke="#ffffff" stroke-width="1" width="36" x="489" y="849" />
<rect fill="#55aaff" height="54" id="Rect25" stroke="#ffffff" stroke-width="1" width="36" x="910" y="894" />
<rect fill="#55aaff" height="172" id="Rect26" stroke="#ffffff" stroke-width="1" width="36" x="734" y="776" />
<rect fill="#55aaff" height="141" id="Rect27" stroke="#ffffff" stroke-width="1" width="35" x="768" y="807" />
<rect fill="#55aaff" height="183" id="Rect119" stroke="#ffffff" stroke-width="1" width="36" x="802" y="765" />
<rect fill="#55aaff" height="189" id="Rect31" stroke="#ffffff" stroke-width="1" width="35" x="841" y="759" />
<rect fill="#55aaff" height="103" id="Rect32" stroke="#ffffff" stroke-width="1" width="35" x="872" y="845" />
<polyline fill="none" id="Foldline1" points=" 956,950 451,950 451,618" stroke="#000000" stroke-width="1" />
<g height="32" id="Text80" width="34" x="403" y="858" >
<text fill="#000000" font-family="SimSun" font-size="15" font-weight="bold" x="403" xml:space="'preserve'" y="870" >10</text>
</g>
<g height="32" id="Text81" width="57" x="451" y="954" >
<text fill="#000000" font-family="SimSun" font-size="15" font-weight="bold" x="451" xml:space="'preserve'" y="966" >6:00</text>
</g>
<g height="32" id="Text82" width="57" x="563" y="954" >
<text fill="#000000" font-family="SimSun" font-size="15" font-weight="bold" x="563" xml:space="'preserve'" y="966" >8:00</text>
</g>
<g height="32" id="Text83" width="67" x="679" y="954" >
<text fill="#000000" font-family="SimSun" font-size="15" font-weight="bold" x="679" xml:space="'preserve'" y="966" >12:00</text>
</g>
<g height="32" id="Text84" width="67" x="793" y="954" >
<text fill="#000000" font-family="SimSun" font-size="15" font-weight="bold" x="793" xml:space="'preserve'" y="966" >15:00</text>
</g>
<g height="32" id="Text85" width="68" x="906" y="954" >
<text fill="#000000" font-family="SimSun" font-size="15" font-weight="bold" x="906" xml:space="'preserve'" y="966" >18:00</text>
</g>
<rect fill="none" height="257" id="Rect38" stroke="#a6a6a6" stroke-width="1" width="410" x="1445" y="553" />
<path d="M1649,679 l89,-25 a93,93 0 0,0 -100,-67 z" fill="#55ff00" id="Pie9" stroke="none" />
<g height="186" id="innertext_Pie9" width="186" x="1557" y="587" >
<text fill="#000000" font-family="SimSun" font-size="12" x="1641" xml:space="'preserve'" y="683" >22%</text>
</g>
<path d="M1649,679 l0,92 a93,93 0 0,0 88,-119 z" fill="#00aaff" id="Pie12" stroke="none" />
<g height="186" id="innertext_Pie12" width="186" x="1557" y="587" >
<text fill="#000000" font-family="SimSun" font-size="12" x="1641" xml:space="'preserve'" y="683" >30%</text>
</g>
<path d="M1649,679 l92,-9 a93,93 0 0,0 -92,-83 z" fill="#ff0000" id="Pie13" stroke="none" transform="rotate(180 1650,680)" />
<g height="186" id="innertext_Pie13" transform="rotate(180 1650,680)" width="186" x="1557" y="587" >
<text fill="#000000" font-family="SimSun" font-size="12" x="1641" xml:space="'preserve'" y="683" >23%</text>
</g>
<path d="M1649,679 l-11,-92 a93,93 0 0,0 -81,101 z" fill="#aa00ff" id="Pie1" stroke="none" />
<g height="186" id="innertext_Pie1" width="186" x="1557" y="587" >
<text fill="#000000" font-family="SimSun" font-size="12" x="1641" xml:space="'preserve'" y="683" >25%</text>
</g>
<image height="2" id="Image1" width="320" x="21" xlink:href="../image/gjsws/分隔线.jpg" y="343" />
<image height="2" id="Image2" width="320" x="19" xlink:href="../image/gjsws/分隔线.jpg" y="547" />
<image height="2" id="Image3" width="320" x="21" xlink:href="../image/gjsws/分隔线.jpg" y="761" />
<a id="Group17_link_elem" onclick="if (window.openPage) {openPage(evt,'能效系统/用电耗能_分区用电.svg','_self', '');}" target="_self" xlink:href="能效系统/用电耗能_分区用电.svg" >
<g height="89" id="Group17" width="321" x="20" y="357" >
<image height="89" id="Group17_Image12" width="321" x="20" xlink:href="../image/gjsws/鼠标移入.jpg" y="357" />
<g height="37" id="Group17_Text94" width="123" x="154" y="389" >
<text fill="#ffffff" font-family="SimSun" font-size="23" font-weight="bold" x="159" xml:space="'preserve'" y="414" >用电耗能</text>
</g>
<image height="66" id="Group17_Image27" width="66" x="50" xlink:href="../image/gjsws/zjxt.png" y="365" />
</g>
</a>
<a id="Group18_link_elem" onclick="if (window.openPage) {openPage(evt,'能效系统/用水耗能_分区用水.svg','_self', '');}" target="_self" xlink:href="能效系统/用水耗能_分区用水.svg" >
<g height="89" id="Group18" width="321" x="20" y="461" >
<image height="89" id="Group18_Image13" width="321" x="20" xlink:href="../image/gjsws/鼠标移入.jpg" y="461" />
<g height="37" id="Group18_Text95" width="123" x="158" y="494" >
<text fill="#ffffff" font-family="SimSun" font-size="23" font-weight="bold" x="163" xml:space="'preserve'" y="519" >用水耗能</text>
</g>
<image height="66" id="Group18_Image25" width="66" x="50" xlink:href="../image/gjsws/cydj.png" y="475" />
</g>
</a>
<a id="Group19_link_elem" onclick="if (window.openPage) {openPage(evt,'能效系统/燃气耗能_燃气系统.svg','_self', '');}" target="_self" xlink:href="能效系统/燃气耗能_燃气系统.svg" >
<g height="89" id="Group19" width="321" x="20" y="565" >
<image height="89" id="Group19_Image14" width="321" x="20" xlink:href="../image/gjsws/鼠标移入.jpg" y="565" />
<g height="37" id="Group19_Text96" width="123" x="152" y="592" >
<text fill="#ffffff" font-family="SimSun" font-size="23" font-weight="bold" x="157" xml:space="'preserve'" y="617" >燃气耗能</text>
</g>
<image height="66" id="Group19_Image24" width="66" x="50" xlink:href="../image/gjsws/cnsb.png" y="576" />
</g>
</a>
<a id="Group20_link_elem" onclick="if (window.openPage) {openPage(evt,'能效系统/供热耗能_供热系统.svg','_self', '');}" target="_self" xlink:href="能效系统/供热耗能_供热系统.svg" >
<g height="89" id="Group20" width="321" x="20" y="669" >
<image height="89" id="Group20_Image15" width="321" x="20" xlink:href="../image/gjsws/鼠标移入.jpg" y="669" />
<g height="37" id="Group20_Text97" width="123" x="150" y="700" >
<text fill="#ffffff" font-family="SimSun" font-size="23" font-weight="bold" x="155" xml:space="'preserve'" y="725" >供热耗能</text>
</g>
<image height="66" id="Group20_Image29" width="66" x="50" xlink:href="../image/gjsws/sgcx.png" y="682" />
</g>
</a>
<a id="Group21_link_elem" onclick="if (window.openPage) {openPage(evt,'能效系统/供冷耗能_冷水系统.svg','_self', '');}" target="_self" xlink:href="能效系统/供冷耗能_冷水系统.svg" >
<g height="89" id="Group21" width="321" x="20" y="773" >
<image height="89" id="Group21_Image16" width="321" x="20" xlink:href="../image/gjsws/鼠标移入.jpg" y="773" />
<g height="37" id="Group21_Text98" width="123" x="150" y="799" >
<text fill="#ffffff" font-family="SimSun" font-size="23" font-weight="bold" x="155" xml:space="'preserve'" y="824" >供冷耗能</text>
</g>
<image height="66" id="Group21_Image23" width="66" x="50" xlink:href="../image/gjsws/yxzb.png" y="779" />
</g>
</a>
<a id="Group22_link_elem" onclick="if (window.openPage) {openPage(evt,'能效系统/其他能源消耗_锅炉系统.svg','_self', '');}" target="_self" xlink:href="能效系统/其他能源消耗_锅炉系统.svg" >
<g height="89" id="Group22" width="321" x="20" y="878" >
<image height="89" id="Group22_Image17" width="321" x="20" xlink:href="../image/gjsws/鼠标移入.jpg" y="878" />
<g height="37" id="Group22_Text99" width="179" x="130" y="909" >
<text fill="#ffffff" font-family="SimSun" font-size="23" font-weight="bold" x="135" xml:space="'preserve'" y="934" >其他能源耗能</text>
</g>
<image height="66" id="Group22_Image22" width="66" x="50" xlink:href="../image/gjsws/yxxx.png" y="890" />
</g>
</a>
<a id="Group23_link_elem" onclick="if (window.openPage) {openPage(evt,'能效系统/建筑总耗能.svg','_self', '');}" target="_self" xlink:href="能效系统/建筑总耗能.svg" >
<g height="89" id="Group23" width="321" x="20" y="253" >
<image height="89" id="Group23_Image1" width="321" x="20" xlink:href="../image/gjsws/鼠标移入.jpg" y="253" />
<g height="37" id="Group23_Text93" width="151" x="144" y="282" >
<text fill="#ffffff" font-family="SimSun" font-size="23" font-weight="bold" x="149" xml:space="'preserve'" y="307" >建筑总耗能</text>
</g>
<image height="66" id="Group23_Image11" width="66" x="50" xlink:href="../image/gjsws/sgcl.png" y="259" />
</g>
</a>
<line id="Line4" stroke="#000000" stroke-width="1" x1="572" x2="572" y1="301" y2="393" />
<polygon fill="none" id="Polygon3" points=" 609,180 652,209 696,175 693,317 901,318 931,355 897,386 476,393 513,357 476,319 612,320" stroke="#00007f" stroke-width="1" />
<polygon fill="#55ff00" id="Polygon5" points=" 560,367 581,373 580,388 560,381" stroke="#000000" stroke-width="1" />
<polygon fill="none" id="Polygon2" points=" 624,163 667,192 711,158 708,298 917,300 947,336 913,367 491,374 528,339 491,300 627,302" stroke="#55007f" stroke-width="1" />
<rect fill="#00ff00" height="13" id="Rect87" stroke="#000000" stroke-width="1" width="32" x="759" y="270" />
<polyline fill="none" id="Foldline6" points=" 793,276 823,276 823,305 823,307" stroke="#000000" stroke-width="1" />
<polyline fill="none" id="Foldline7" points=" 758,278 728,278 728,307 728,309" stroke="#000000" stroke-width="1" transform="rotate(-720 743,294)" />
<g height="41" id="Group1" width="46" x="484" y="419" >
<polygon fill="#cc0099" id="Group1_Polygon9" points=" 496,419 517,419 506,439" stroke="#000000" stroke-width="1" />
<polygon fill="#cc0099" id="Group1_Polygon10" points=" 484,437 505,437 494,458" stroke="#000000" stroke-width="1" transform="rotate(-360 495,448)" />
<polygon fill="#cc0099" id="Group1_Polygon12" points=" 507,438 529,438 517,459" stroke="#000000" stroke-width="1" />
</g>
<g height="41" id="Group2" width="45" x="813" y="328" >
<polygon fill="#cc0099" id="Group2_Polygon9" points=" 824,328 846,328 834,348" stroke="#000000" stroke-width="1" />
<polygon fill="#cc0099" id="Group2_Polygon10" points=" 813,346 834,346 823,367" stroke="#000000" stroke-width="1" transform="rotate(-360 824,357)" />
<polygon fill="#cc0099" id="Group2_Polygon12" points=" 836,347 857,347 846,368" stroke="#000000" stroke-width="1" />
</g>
<polygon fill="#c0c0c0" id="Polygon4" points=" 729,306 705,330 705,393 730,366" stroke="#aa55ff" stroke-width="1" />
<polygon fill="#55ff00" id="Polygon6" points=" 560,305 581,311 580,326 560,319" stroke="#000000" stroke-width="1" />
<polygon fill="#55ff00" id="Polygon7" points=" 560,336 581,342 580,358 560,351" stroke="#000000" stroke-width="1" />
<g height="37" id="Text22" width="64" x="476" y="471" >
<text fill="#000000" font-family="SimSun" font-size="21" x="476" xml:space="'preserve'" y="489" >风阀</text>
</g>
<polyline fill="none" id="Curve2" points=" 858,336 896,336 910,352 897,374 862,373 867,375" stroke="#000000" stroke-width="1" />
<polyline fill="none" id="Curve3" points=" 854,320 893,320 907,336 894,359 864,359 864,360" stroke="#000000" stroke-width="1" />
<ellipse cx="835" cy="351" fill="none" id="Ellipse1" rx="33" ry="32" stroke="#000000" stroke-width="1" />
<polygon fill="#000000" id="Polygon8" points=" 765,303 749,325 751,380 769,381 768,326 786,304 786,302 783,303" stroke="#000000" stroke-width="1" />
<polyline fill="none" id="Curve4" points=" 785,309 787,371 769,381" stroke="#000000" stroke-width="1" />
<polyline fill="none" id="Foldline8" points=" 766,364 766,448 637,448" stroke="#000000" stroke-width="1" />
<g height="45" id="Text23" width="83" x="645" y="464" >
<rect fill="url(#bdiag#ffffff)" height="31" width="64" x="645" y="464" />
<text fill="#000000" font-family="SimSun" font-size="26" x="645" xml:space="'preserve'" y="487" >0.00</text>
</g>
<g height="45" id="Text24" width="29" x="733" y="462" >
<text fill="#000000" font-family="SimSun" font-size="26" x="733" xml:space="'preserve'" y="485" >%</text>
</g>
<g height="38" id="Text25" width="119" x="725" y="225" >
<text fill="#000000" font-family="SimSun" font-size="21" x="725" xml:space="'preserve'" y="243" >压差开关</text>
</g>
<g height="38" id="Group4" width="46" x="676" y="419" >
<polygon fill="url(#lineargradient#000000#RToL)" id="Group4_Polygon11" points=" 697,446 676,442 676,456" stroke="#000000" stroke-width="1" />
<polygon fill="url(#lineargradient#000000#RToL)" id="Group4_Polygon12" points=" 694,447 713,441 713,456" stroke="#000000" stroke-width="1" />
<rect fill="#000000" height="17" id="Group4_Rect98" stroke="#000000" stroke-width="1" width="4" x="692" y="429" />
<path d="M699,423 l0,-4 a22,5 0 0,0 0,0 z" fill="none" id="Group4_Pie1" stroke="#ffffff" stroke-width="1" />
<rect fill="#000000" height="6" id="Group4_Rect89" stroke="#000000" stroke-width="1" width="28" x="680" y="423" />
</g>
</svg>