<?xml version="1.0" encoding="utf-8"?>
<svg height="1080" preserveAspectRatio="none" vdfName="用电耗能_楼层分布" vdfPath="D:/ics8000/cbin/xview/pages/能效系统/用电耗能_楼层分布.vdf" viewBox="0 0 1920 1080" width="1920" xmlns="http://www.w3.org/2000/svg" xmlns:vn="http://www.xjgc.com/xview/vision" xmlns:xlink="http://www.w3.org/1999/xlink" >
<defs id="doc_defs" >
<pattern height="1080" id="root_bg" patternUnits="userSpaceOnUse" width="1920" >
<rect fill="#000000" height="100%" width="100%" />
<image height="1080" width="1920" xlink:href="../image/gjsws/bg.jpg" />
</pattern>
<pattern id="lineargradient#003f5d" patternUnits="userSpaceOnUse" x="0" y="0" >
<linearGradient gradientUnits="objectBoundingBox" id="lineargradient#003f5d#MToUD" x1="50%" x2="50%" y1="0" y2="100%" >
<stop offset="0" stop-color="#003f5d" />
<stop offset="0.5" stop-color="#007eba" />
<stop offset="1" stop-color="#003f5d" />
</linearGradient>
</pattern>
<pattern id="lineargradient#b8b8b8" patternUnits="userSpaceOnUse" x="0" y="0" >
<linearGradient gradientUnits="objectBoundingBox" id="lineargradient#b8b8b8#MToUD" x1="50%" x2="50%" y1="0" y2="100%" >
<stop offset="0" stop-color="#7b7b7b" />
<stop offset="0.5" stop-color="#ffffff" />
<stop offset="1" stop-color="#7b7b7b" />
</linearGradient>
</pattern>
<pattern id="lineargradient#003f5d" patternUnits="userSpaceOnUse" x="0" y="0" >
<linearGradient gradientUnits="objectBoundingBox" id="lineargradient#003f5d#MToUD" x1="50%" x2="50%" y1="0" y2="100%" >
<stop offset="0" stop-color="#003f5d" />
<stop offset="0.5" stop-color="#007eba" />
<stop offset="1" stop-color="#003f5d" />
</linearGradient>
</pattern>
<pattern id="lineargradient#003f5d" patternUnits="userSpaceOnUse" x="0" y="0" >
<linearGradient gradientUnits="objectBoundingBox" id="lineargradient#003f5d#MToUD" x1="50%" x2="50%" y1="0" y2="100%" >
<stop offset="0" stop-color="#003f5d" />
<stop offset="0.5" stop-color="#007eba" />
<stop offset="1" stop-color="#003f5d" />
</linearGradient>
</pattern>
<pattern id="lineargradient#003f5d" patternUnits="userSpaceOnUse" x="0" y="0" >
<linearGradient gradientUnits="objectBoundingBox" id="lineargradient#003f5d#MToUD" x1="50%" x2="50%" y1="0" y2="100%" >
<stop offset="0" stop-color="#003f5d" />
<stop offset="0.5" stop-color="#007eba" />
<stop offset="1" stop-color="#003f5d" />
</linearGradient>
</pattern>
<pattern id="lineargradient#003f5d" patternUnits="userSpaceOnUse" x="0" y="0" >
<linearGradient gradientUnits="objectBoundingBox" id="lineargradient#003f5d#MToUD" x1="50%" x2="50%" y1="0" y2="100%" >
<stop offset="0" stop-color="#003f5d" />
<stop offset="0.5" stop-color="#007eba" />
<stop offset="1" stop-color="#003f5d" />
</linearGradient>
</pattern>
<pattern id="lineargradient#00aaff" patternUnits="userSpaceOnUse" x="0" y="0" >
<linearGradient gradientUnits="objectBoundingBox" id="lineargradient#00aaff#UToD" x1="50%" x2="50%" y1="0" y2="100%" >
<stop offset="0" stop-color="#7fd5ff" />
<stop offset="1" stop-color="#0071aa" />
</linearGradient>
</pattern>
<pattern id="lineargradient#00aaff" patternUnits="userSpaceOnUse" x="0" y="0" >
<linearGradient gradientUnits="objectBoundingBox" id="lineargradient#00aaff#UToD" x1="50%" x2="50%" y1="0" y2="100%" >
<stop offset="0" stop-color="#7fd5ff" />
<stop offset="1" stop-color="#0071aa" />
</linearGradient>
</pattern>
<pattern id="lineargradient#00aaff" patternUnits="userSpaceOnUse" x="0" y="0" >
<linearGradient gradientUnits="objectBoundingBox" id="lineargradient#00aaff#UToD" x1="50%" x2="50%" y1="0" y2="100%" >
<stop offset="0" stop-color="#7fd5ff" />
<stop offset="1" stop-color="#0071aa" />
</linearGradient>
</pattern>
</defs>
<rect fill="url(#root_bg)" height="100%" id="svg_root_bkgrdrect" width="100%" x="0" y="0" />
<a id="Rect28_link_elem" onclick="if (window.openPage) {openPage(evt,'能效系统/用电耗能_分区用电.svg','_self', '');}" target="_self" xlink:href="能效系统/用电耗能_分区用电.svg" >
<rect fill="url(#lineargradient#003f5d#MToUD)" height="50" id="Rect28" stroke="#00557f" stroke-width="1" width="170" x="372" y="70" />
<g height="50" id="innertext_Rect28" width="170" x="372" y="70" >
<text fill="#ffffff" font-family="SimHei" font-size="19" font-weight="bold" x="415" xml:space="'preserve'" y="97" >分区用电</text>
</g>
</a>
<a id="Rect29_link_elem" onclick="if (window.openPage) {openPage(evt,'变电站自动化系统/35kV降压站.svg','_self', '');}" target="_self" xlink:href="变电站自动化系统/35kV降压站.svg" >
<rect fill="url(#lineargradient#b8b8b8#MToUD)" height="50" id="Rect29" stroke="#d4d4d4" stroke-width="1" width="170" x="1222" y="70" />
<g height="50" id="innertext_Rect29" width="170" x="1222" y="70" >
<text fill="#000000" font-family="SimHei" font-size="19" font-weight="bold" x="1265" xml:space="'preserve'" y="97" >楼层分布</text>
</g>
</a>
<a id="Rect83_link_elem" onclick="if (window.openPage) {openPage(evt,'能效系统/用电耗能_高压系统图.svg','_self', '');}" target="_self" xlink:href="能效系统/用电耗能_高压系统图.svg" >
<rect fill="url(#lineargradient#003f5d#MToUD)" height="50" id="Rect83" stroke="#00557f" stroke-width="1" width="170" x="542" y="70" />
<g height="50" id="innertext_Rect83" width="170" x="542" y="70" >
<text fill="#ffffff" font-family="SimHei" font-size="19" font-weight="bold" x="574" xml:space="'preserve'" y="97" >高压系统图</text>
</g>
</a>
<a id="Rect84_link_elem" onclick="if (window.openPage) {openPage(evt,'能效系统/用电耗能_谐波分析图.svg','_self', '');}" target="_self" xlink:href="能效系统/用电耗能_谐波分析图.svg" >
<rect fill="url(#lineargradient#003f5d#MToUD)" height="50" id="Rect84" stroke="#00557f" stroke-width="1" width="170" x="882" y="70" />
<g height="50" id="innertext_Rect84" width="170" x="882" y="70" >
<text fill="#ffffff" font-family="SimHei" font-size="19" font-weight="bold" x="914" xml:space="'preserve'" y="97" >谐波分析图</text>
</g>
</a>
<a id="Rect85_link_elem" onclick="if (window.openPage) {openPage(evt,'能效系统/用电耗能_中央空调.svg','_self', '');}" target="_self" xlink:href="能效系统/用电耗能_中央空调.svg" >
<rect fill="url(#lineargradient#003f5d#MToUD)" height="50" id="Rect85" stroke="#00557f" stroke-width="1" width="170" x="1052" y="70" />
<g height="50" id="innertext_Rect85" width="170" x="1052" y="70" >
<text fill="#ffffff" font-family="SimHei" font-size="19" font-weight="bold" x="1095" xml:space="'preserve'" y="97" >中央空调</text>
</g>
</a>
<a id="Rect86_link_elem" onclick="if (window.openPage) {openPage(evt,'能效系统/用电耗能_低压配电图.svg','_self', '');}" target="_self" xlink:href="能效系统/用电耗能_低压配电图.svg" >
<rect fill="url(#lineargradient#003f5d#MToUD)" height="50" id="Rect86" stroke="#00557f" stroke-width="1" width="170" x="712" y="70" />
<g height="50" id="innertext_Rect86" width="170" x="712" y="70" >
<text fill="#ffffff" font-family="SimHei" font-size="19" font-weight="bold" x="744" xml:space="'preserve'" y="97" >低压配电图</text>
</g>
</a>
<image height="774" id="Image1" width="407" x="519" xlink:href="../image/gjsws/楼层示意图.jpg" y="175" />
<line id="Line1" stroke="#000000" stroke-width="1" x1="849" x2="1033" y1="370" y2="370" />
<g height="107" id="Group1" width="668" x="1011" y="314" >
<g height="105" id="Group1_Group9" width="668" x="1011" y="314" >
<rect fill="url(#lineargradient#00aaff#UToD)" height="103" id="Group1_Group9_Rect56" stroke="#000000" stroke-width="1" width="668" x="1011" y="314" />
<line id="Group1_Group9_Line44" stroke="#000000" stroke-width="1" x1="1049" x2="1049" y1="314" y2="417" />
<polyline fill="none" id="Group1_Group9_Foldline1" points=" 1678,363 1475,363 1475,417" stroke="#000000" stroke-width="1" />
<line id="Group1_Group9_Line45" stroke="#000000" stroke-width="1" x1="1523" x2="1523" y1="363" y2="418" />
</g>
<rect fill="#000000" height="36" id="Group1_Rect63" stroke="#000000" stroke-width="1" width="36" x="1056" y="319" />
<rect fill="#000000" height="36" id="Group1_Rect64" stroke="#000000" stroke-width="1" width="36" x="1195" y="319" />
<rect fill="#000000" height="36" id="Group1_Rect65" stroke="#000000" stroke-width="1" width="36" x="1335" y="319" />
<rect fill="#000000" height="36" id="Group1_Rect66" stroke="#000000" stroke-width="1" width="36" x="1476" y="319" />
<rect fill="#000000" height="36" id="Group1_Rect67" stroke="#000000" stroke-width="1" width="36" x="1538" y="372" />
<g height="88" id="Group1_Text131" width="34" x="1012" y="319" >
<text fill="#000000" font-family="SimSun" font-size="21" x="1012" xml:space="'preserve'" y="337" >强</text>
<text fill="#000000" font-family="SimSun" font-size="21" x="1012" xml:space="'preserve'" y="355" >电</text>
<text fill="#000000" font-family="SimSun" font-size="21" x="1012" xml:space="'preserve'" y="373" >间</text>
</g>
<g height="61" id="Group1_Text132" width="58" x="1471" y="360" >
<text fill="#000000" font-family="SimSun" font-size="21" x="1471" xml:space="'preserve'" y="378" >空调</text>
<text fill="#000000" font-family="SimSun" font-size="21" x="1471" xml:space="'preserve'" y="396" >机房</text>
</g>
<g height="34" id="Group1_Text133" width="58" x="1100" y="319" >
<text fill="#000000" font-family="SimSun" font-size="21" x="1100" xml:space="'preserve'" y="337" >NTA1</text>
</g>
<g height="34" id="Group1_Text134" width="58" x="1235" y="319" >
<text fill="#000000" font-family="SimSun" font-size="21" x="1235" xml:space="'preserve'" y="337" >NTA2</text>
</g>
<g height="34" id="Group1_Text135" width="70" x="1370" y="319" >
<text fill="#000000" font-family="SimSun" font-size="21" x="1370" xml:space="'preserve'" y="337" >NTFTA</text>
</g>
<g height="34" id="Group1_Text137" width="70" x="1587" y="372" >
<text fill="#000000" font-family="SimSun" font-size="21" x="1587" xml:space="'preserve'" y="390" >XFARF</text>
</g>
<g height="34" id="Group1_Text138" width="58" x="1517" y="319" >
<text fill="#000000" font-family="SimSun" font-size="21" x="1517" xml:space="'preserve'" y="337" >XARF</text>
</g>
</g>
<g height="34" id="Text3" width="46" x="866" y="765" >
<text fill="#000000" font-family="SimSun" font-size="21" x="866" xml:space="'preserve'" y="783" >8层</text>
</g>
<g height="34" id="Text4" width="46" x="866" y="542" >
<text fill="#000000" font-family="SimSun" font-size="21" x="866" xml:space="'preserve'" y="560" >9层</text>
</g>
<g height="34" id="Text5" width="46" x="866" y="328" >
<text fill="#000000" font-family="SimSun" font-size="21" x="866" xml:space="'preserve'" y="346" >L层</text>
</g>
<line id="Line2" stroke="#000000" stroke-width="1" x1="849" x2="1034" y1="799" y2="799" />
<g height="105" id="Group2" width="668" x="1011" y="785" >
<rect fill="url(#lineargradient#00aaff#UToD)" height="103" id="Group2_Rect56" stroke="#000000" stroke-width="1" width="668" x="1011" y="785" />
<line id="Group2_Line44" stroke="#000000" stroke-width="1" x1="1049" x2="1049" y1="785" y2="888" />
<polyline fill="none" id="Group2_Foldline1" points=" 1678,834 1475,834 1475,888" stroke="#000000" stroke-width="1" />
<line id="Group2_Line45" stroke="#000000" stroke-width="1" x1="1523" x2="1523" y1="834" y2="889" />
</g>
<g height="88" id="Text6" width="34" x="1012" y="790" >
<text fill="#000000" font-family="SimSun" font-size="21" x="1012" xml:space="'preserve'" y="808" >强</text>
<text fill="#000000" font-family="SimSun" font-size="21" x="1012" xml:space="'preserve'" y="826" >电</text>
<text fill="#000000" font-family="SimSun" font-size="21" x="1012" xml:space="'preserve'" y="844" >间</text>
</g>
<rect fill="#000000" height="36" id="Rect87" stroke="#000000" stroke-width="1" width="36" x="1056" y="790" />
<rect fill="#000000" height="36" id="Rect88" stroke="#000000" stroke-width="1" width="36" x="1061" y="843" />
<rect fill="#000000" height="36" id="Rect89" stroke="#000000" stroke-width="1" width="36" x="1056" y="843" />
<g height="34" id="Text7" width="82" x="1100" y="790" >
<text fill="#000000" font-family="SimSun" font-size="21" x="1100" xml:space="'preserve'" y="808" >MA08-1</text>
</g>
<g height="34" id="Text8" width="82" x="1100" y="841" >
<text fill="#000000" font-family="SimSun" font-size="21" x="1100" xml:space="'preserve'" y="859" >MA08-4</text>
</g>
<rect fill="#000000" height="36" id="Rect90" stroke="#000000" stroke-width="1" width="36" x="1195" y="790" />
<rect fill="#000000" height="36" id="Rect91" stroke="#000000" stroke-width="1" width="36" x="1195" y="847" />
<g height="34" id="Text9" width="82" x="1235" y="790" >
<text fill="#000000" font-family="SimSun" font-size="21" x="1235" xml:space="'preserve'" y="808" >MA08-2</text>
</g>
<g height="34" id="Text10" width="82" x="1235" y="841" >
<text fill="#000000" font-family="SimSun" font-size="21" x="1235" xml:space="'preserve'" y="859" >MA08-5</text>
</g>
<rect fill="#000000" height="36" id="Rect92" stroke="#000000" stroke-width="1" width="36" x="1335" y="790" />
<rect fill="#000000" height="36" id="Rect93" stroke="#000000" stroke-width="1" width="36" x="1335" y="838" />
<g height="34" id="Text11" width="82" x="1370" y="790" >
<text fill="#000000" font-family="SimSun" font-size="21" x="1370" xml:space="'preserve'" y="808" >MA08-3</text>
</g>
<g height="34" id="Text12" width="82" x="1370" y="841" >
<text fill="#000000" font-family="SimSun" font-size="21" x="1370" xml:space="'preserve'" y="859" >MA08-6</text>
</g>
<g height="61" id="Text13" width="58" x="1471" y="831" >
<text fill="#000000" font-family="SimSun" font-size="21" x="1471" xml:space="'preserve'" y="849" >空调</text>
<text fill="#000000" font-family="SimSun" font-size="21" x="1471" xml:space="'preserve'" y="867" >机房</text>
</g>
<rect fill="#000000" height="36" id="Rect94" stroke="#000000" stroke-width="1" width="36" x="1476" y="790" />
<g height="34" id="Text14" width="58" x="1517" y="790" >
<text fill="#000000" font-family="SimSun" font-size="21" x="1517" xml:space="'preserve'" y="808" >XARF</text>
</g>
<rect fill="#000000" height="36" id="Rect95" stroke="#000000" stroke-width="1" width="36" x="1538" y="843" />
<g height="34" id="Text15" width="58" x="1587" y="843" >
<text fill="#000000" font-family="SimSun" font-size="21" x="1587" xml:space="'preserve'" y="861" >XA08</text>
</g>
<line id="Line3" stroke="#000000" stroke-width="1" x1="849" x2="1033" y1="584" y2="584" />
<g height="105" id="Group3" width="668" x="1011" y="549" >
<rect fill="url(#lineargradient#00aaff#UToD)" height="103" id="Group3_Rect56" stroke="#000000" stroke-width="1" width="668" x="1011" y="549" />
<line id="Group3_Line44" stroke="#000000" stroke-width="1" x1="1049" x2="1049" y1="549" y2="652" />
<polyline fill="none" id="Group3_Foldline1" points=" 1678,598 1475,598 1475,652" stroke="#000000" stroke-width="1" />
<line id="Group3_Line45" stroke="#000000" stroke-width="1" x1="1523" x2="1523" y1="598" y2="653" />
</g>
<g height="88" id="Text16" width="34" x="1012" y="554" >
<text fill="#000000" font-family="SimSun" font-size="21" x="1012" xml:space="'preserve'" y="572" >强</text>
<text fill="#000000" font-family="SimSun" font-size="21" x="1012" xml:space="'preserve'" y="590" >电</text>
<text fill="#000000" font-family="SimSun" font-size="21" x="1012" xml:space="'preserve'" y="608" >间</text>
</g>
<rect fill="#000000" height="36" id="Rect96" stroke="#000000" stroke-width="1" width="36" x="1056" y="554" />
<rect fill="#000000" height="36" id="Rect97" stroke="#000000" stroke-width="1" width="36" x="1056" y="603" />
<g height="34" id="Text17" width="82" x="1100" y="554" >
<text fill="#000000" font-family="SimSun" font-size="21" x="1100" xml:space="'preserve'" y="572" >MA09-1</text>
</g>
<g height="34" id="Text18" width="82" x="1100" y="603" >
<text fill="#000000" font-family="SimSun" font-size="21" x="1100" xml:space="'preserve'" y="621" >MA09-4</text>
</g>
<rect fill="#000000" height="36" id="Rect98" stroke="#000000" stroke-width="1" width="36" x="1195" y="554" />
<rect fill="#000000" height="36" id="Rect99" stroke="#000000" stroke-width="1" width="36" x="1195" y="610" />
<g height="34" id="Text19" width="82" x="1235" y="554" >
<text fill="#000000" font-family="SimSun" font-size="21" x="1235" xml:space="'preserve'" y="572" >MA09-2</text>
</g>
<g height="34" id="Text20" width="82" x="1235" y="601" >
<text fill="#000000" font-family="SimSun" font-size="21" x="1235" xml:space="'preserve'" y="619" >MA09-5</text>
</g>
<g height="34" id="Text21" width="82" x="1370" y="554" >
<text fill="#000000" font-family="SimSun" font-size="21" x="1370" xml:space="'preserve'" y="572" >MA09-3</text>
</g>
<g height="34" id="Text22" width="82" x="1370" y="601" >
<text fill="#000000" font-family="SimSun" font-size="21" x="1370" xml:space="'preserve'" y="619" >MA09-6</text>
</g>
<g height="61" id="Text23" width="58" x="1471" y="595" >
<text fill="#000000" font-family="SimSun" font-size="21" x="1471" xml:space="'preserve'" y="613" >空调</text>
<text fill="#000000" font-family="SimSun" font-size="21" x="1471" xml:space="'preserve'" y="631" >机房</text>
</g>
<rect fill="#000000" height="36" id="Rect100" stroke="#000000" stroke-width="1" width="36" x="1476" y="554" />
<g height="34" id="Text24" width="58" x="1517" y="554" >
<text fill="#000000" font-family="SimSun" font-size="21" x="1517" xml:space="'preserve'" y="572" >XARF</text>
</g>
<rect fill="#000000" height="36" id="Rect101" stroke="#000000" stroke-width="1" width="36" x="1538" y="607" />
<g height="34" id="Text25" width="58" x="1587" y="607" >
<text fill="#000000" font-family="SimSun" font-size="21" x="1587" xml:space="'preserve'" y="625" >XA09</text>
</g>
<rect fill="#000000" height="36" id="Rect102" stroke="#000000" stroke-width="1" width="36" x="1335" y="554" />
<rect fill="#000000" height="36" id="Rect103" stroke="#000000" stroke-width="1" width="36" x="1335" y="610" />
<image height="2" id="Image2" width="320" x="21" xlink:href="../image/gjsws/分隔线.jpg" y="343" />
<image height="2" id="Image3" width="320" x="19" xlink:href="../image/gjsws/分隔线.jpg" y="547" />
<image height="2" id="Image4" width="320" x="21" xlink:href="../image/gjsws/分隔线.jpg" y="761" />
<a id="Group4_link_elem" onclick="if (window.openPage) {openPage(evt,'能效系统/用电耗能_分区用电.svg','_self', '');}" target="_self" xlink:href="能效系统/用电耗能_分区用电.svg" >
<g height="89" id="Group4" width="321" x="20" y="357" >
<image height="89" id="Group4_Image12" width="321" x="20" xlink:href="../image/gjsws/鼠标移入.jpg" y="357" />
<g height="37" id="Group4_Text94" width="123" x="154" y="389" >
<text fill="#ffffff" font-family="SimSun" font-size="23" font-weight="bold" x="159" xml:space="'preserve'" y="414" >用电耗能</text>
</g>
<image height="66" id="Group4_Image27" width="66" x="50" xlink:href="../image/gjsws/zjxt.png" y="365" />
</g>
</a>
<a id="Group5_link_elem" onclick="if (window.openPage) {openPage(evt,'能效系统/用水耗能_分区用水.svg','_self', '');}" target="_self" xlink:href="能效系统/用水耗能_分区用水.svg" >
<g height="89" id="Group5" width="321" x="20" y="461" >
<image height="89" id="Group5_Image13" width="321" x="20" xlink:href="../image/gjsws/鼠标移入.jpg" y="461" />
<g height="37" id="Group5_Text95" width="123" x="158" y="494" >
<text fill="#ffffff" font-family="SimSun" font-size="23" font-weight="bold" x="163" xml:space="'preserve'" y="519" >用水耗能</text>
</g>
<image height="66" id="Group5_Image25" width="66" x="50" xlink:href="../image/gjsws/cydj.png" y="475" />
</g>
</a>
<a id="Group6_link_elem" onclick="if (window.openPage) {openPage(evt,'能效系统/燃气耗能_燃气系统.svg','_self', '');}" target="_self" xlink:href="能效系统/燃气耗能_燃气系统.svg" >
<g height="89" id="Group6" width="321" x="20" y="565" >
<image height="89" id="Group6_Image14" width="321" x="20" xlink:href="../image/gjsws/鼠标移入.jpg" y="565" />
<g height="37" id="Group6_Text96" width="123" x="152" y="592" >
<text fill="#ffffff" font-family="SimSun" font-size="23" font-weight="bold" x="157" xml:space="'preserve'" y="617" >燃气耗能</text>
</g>
<image height="66" id="Group6_Image24" width="66" x="50" xlink:href="../image/gjsws/cnsb.png" y="576" />
</g>
</a>
<a id="Group7_link_elem" onclick="if (window.openPage) {openPage(evt,'能效系统/供热耗能_供热系统.svg','_self', '');}" target="_self" xlink:href="能效系统/供热耗能_供热系统.svg" >
<g height="89" id="Group7" width="321" x="20" y="669" >
<image height="89" id="Group7_Image15" width="321" x="20" xlink:href="../image/gjsws/鼠标移入.jpg" y="669" />
<g height="37" id="Group7_Text97" width="123" x="150" y="700" >
<text fill="#ffffff" font-family="SimSun" font-size="23" font-weight="bold" x="155" xml:space="'preserve'" y="725" >供热耗能</text>
</g>
<image height="66" id="Group7_Image29" width="66" x="50" xlink:href="../image/gjsws/sgcx.png" y="682" />
</g>
</a>
<a id="Group8_link_elem" onclick="if (window.openPage) {openPage(evt,'能效系统/供冷耗能_冷水系统.svg','_self', '');}" target="_self" xlink:href="能效系统/供冷耗能_冷水系统.svg" >
<g height="89" id="Group8" width="321" x="20" y="773" >
<image height="89" id="Group8_Image16" width="321" x="20" xlink:href="../image/gjsws/鼠标移入.jpg" y="773" />
<g height="37" id="Group8_Text98" width="123" x="150" y="799" >
<text fill="#ffffff" font-family="SimSun" font-size="23" font-weight="bold" x="155" xml:space="'preserve'" y="824" >供冷耗能</text>
</g>
<image height="66" id="Group8_Image23" width="66" x="50" xlink:href="../image/gjsws/yxzb.png" y="779" />
</g>
</a>
<a id="Group9_link_elem" onclick="if (window.openPage) {openPage(evt,'能效系统/其他能源消耗_锅炉系统.svg','_self', '');}" target="_self" xlink:href="能效系统/其他能源消耗_锅炉系统.svg" >
<g height="89" id="Group9" width="321" x="20" y="878" >
<image height="89" id="Group9_Image17" width="321" x="20" xlink:href="../image/gjsws/鼠标移入.jpg" y="878" />
<g height="37" id="Group9_Text99" width="179" x="130" y="909" >
<text fill="#ffffff" font-family="SimSun" font-size="23" font-weight="bold" x="135" xml:space="'preserve'" y="934" >其他能源耗能</text>
</g>
<image height="66" id="Group9_Image22" width="66" x="50" xlink:href="../image/gjsws/yxxx.png" y="890" />
</g>
</a>
<a id="Group10_link_elem" onclick="if (window.openPage) {openPage(evt,'能效系统/建筑总耗能.svg','_self', '');}" target="_self" xlink:href="能效系统/建筑总耗能.svg" >
<g height="89" id="Group10" width="321" x="20" y="253" >
<image height="89" id="Group10_Image1" width="321" x="20" xlink:href="../image/gjsws/鼠标移入.jpg" y="253" />
<g height="37" id="Group10_Text93" width="151" x="144" y="282" >
<text fill="#ffffff" font-family="SimSun" font-size="23" font-weight="bold" x="149" xml:space="'preserve'" y="307" >建筑总耗能</text>
</g>
<image height="66" id="Group10_Image11" width="66" x="50" xlink:href="../image/gjsws/sgcl.png" y="259" />
</g>
</a>
</svg>